  0
SECTION
  2
HEADER
  9
$ACADVER
  1
AC1024
  9
$ACADMAINTVER
 70
6
  9
$DWGCODEPAGE
  3
ansi_1252
  9
$TITLE
  1

  9
$SUBJECT
  1

  9
$AUTHOR
  1

  9
$KEYWORDS
  1

  9
$COMMENTS
  1

  9
$LASTSAVEDBY
  1

  9
$REVISIONNUMBER
  1

  9
$INSBASE
 10
0
 20
0
 30
0
  9
$EXTMIN
 10
5.0000011000349662
 20
5.0002033408917761
 30
0
  9
$EXTMAX
 10
1192.4103628019036
 20
892.211137360258
 30
0
  9
$LIMMIN
 10
0
 20
0
  9
$LIMMAX
 10
12
 20
9
  9
$SNAPMODE
 70
0
  9
$SNAPUNIT
 10
1
 20
1
  9
$SNAPBASE
 10
0
 20
0
  9
$SNAPANG
 50
0
  9
$SNAPSTYLE
 70
0
  9
$SNAPISOPAIR
 70
0
  9
$ORTHOMODE
 70
0
  9
$REGENMODE
 70
1
  9
$FILLMODE
 70
1
  9
$QTEXTMODE
 70
0
  9
$MIRRTEXT
 70
1
  9
$LTSCALE
 40
1
  9
$OSMODE
 70
0
  9
$ATTMODE
 70
1
  9
$TEXTSIZE
 40
0.2
  9
$TRACEWID
 40
0.05
  9
$TEXTSTYLE
  7
Standard
  9
$CLAYER
  8
0
  9
$CELTYPE
  6
ByLayer
  9
$CECOLOR
 62
256
  9
$CELTSCALE
 40
1
  9
$DISPSILH
 70
0
  9
$DIMSCALE
 40
1
  9
$DIMASZ
 40
0.18
  9
$DIMEXO
 40
0.0625
  9
$DIMDLI
 40
0.38
  9
$DIMRND
 40
0
  9
$DIMDLE
 40
0
  9
$DIMEXE
 40
0.18
  9
$DIMTP
 40
0
  9
$DIMTM
 40
0
  9
$DIMTXT
 40
0.18
  9
$DIMCEN
 40
0.09
  9
$DIMTSZ
 40
0
  9
$DIMTOL
 70
0
  9
$DIMLIM
 70
0
  9
$DIMTIH
 70
1
  9
$DIMTOH
 70
1
  9
$DIMSE1
 70
0
  9
$DIMSE2
 70
0
  9
$DIMTAD
 70
0
  9
$DIMZIN
 70
0
  9
$DIMBLK
  1

  9
$DIMASO
 70
1
  9
$DIMSHO
 70
1
  9
$DIMPOST
  1

  9
$DIMAPOST
  1

  9
$DIMALT
 70
0
  9
$DIMALTD
 70
2
  9
$DIMALTF
 40
0.03937007874015748
  9
$DIMLFAC
 40
1
  9
$DIMTOFL
 70
0
  9
$DIMTVP
 40
0
  9
$DIMTIX
 70
0
  9
$DIMSOXD
 70
0
  9
$DIMSAH
 70
0
  9
$DIMBLK1
  1

  9
$DIMBLK2
  1

  9
$DIMSTYLE
  2
Standard
  9
$DIMCLRD
 70
0
  9
$DIMCLRE
 70
0
  9
$DIMCLRT
 70
0
  9
$DIMTFAC
 40
1
  9
$DIMGAP
 40
0.09
  9
$DIMJUST
 70
0
  9
$DIMSD1
 70
0
  9
$DIMSD2
 70
0
  9
$DIMTOLJ
 70
1
  9
$DIMTZIN
 70
0
  9
$DIMALTZ
 70
0
  9
$DIMALTTZ
 70
0
  9
$DIMUPT
 70
0
  9
$DIMDEC
 70
4
  9
$DIMTDEC
 70
4
  9
$DIMALTU
 70
2
  9
$DIMALTTD
 70
0
  9
$DIMTXSTY
  7
Standard
  9
$DIMAUNIT
 70
0
  9
$DIMADEC
 70
0
  9
$DIMALTRND
 40
0
  9
$DIMAZIN
 70
0
  9
$DIMDSEP
 70
46
  9
$DIMATFIT
 70
0
  9
$DIMFRAC
 70
0
  9
$DIMLDRBLK
  1

  9
$DIMLUNIT
 70
2
  9
$DIMLWD
 70
-2
  9
$DIMLWE
 70
-2
  9
$DIMFXL
 40
1
  9
$DIMFXLON
 70
0
  9
$DIMJOGANG
 40
0.78539816339744828
  9
$DIMTFILL
 70
0
  9
$DIMTFILLCLR
 70
0
  9
$DIMARCSYM
 70
1
  9
$DIMLTYPE
  6
ByBlock
  9
$DIMLTEX1
  6
ByBlock
  9
$DIMLTEX2
  6
ByBlock
  9
$LUNITS
 70
2
  9
$LUPREC
 70
4
  9
$SKETCHINC
 40
0.1
  9
$FILLETRAD
 40
0
  9
$AUNITS
 70
0
  9
$AUPREC
 70
0
  9
$MENU
  1
.
  9
$ELEVATION
 40
0
  9
$PELEVATION
 40
0
  9
$THICKNESS
 40
0
  9
$LIMCHECK
 70
0
  9
$CHAMFERA
 40
0.5
  9
$CHAMFERB
 40
0.5
  9
$CHAMFERC
 40
0
  9
$CHAMFERD
 40
0
  9
$SKPOLY
 70
0
  9
$TDCREATE
 40
2460586.7848091205
  9
$TDUCREATE
 40
2460586.451475787
  9
$TDUPDATE
 40
2460586.7848091205
  9
$TDUUPDATE
 40
2460586.451475787
  9
$TDINDWG
 40
0
  9
$TDUSRTIMER
 40
1.1574074074074074E-08
  9
$USRTIMER
 70
1
  9
$ANGBASE
 50
0
  9
$ANGDIR
 70
1
  9
$PDMODE
 70
0
  9
$PDSIZE
 40
0
  9
$PLINEWID
 40
0
  9
$SPLFRAME
 70
0
  9
$SPLINETYPE
 70
6
  9
$SPLINESEGS
 70
8
  9
$HANDSEED
  5
27C
  9
$SURFTAB1
 70
6
  9
$SURFTAB2
 70
6
  9
$SURFTYPE
 70
6
  9
$SURFU
 70
6
  9
$SURFV
 70
6
  9
$UCSORG
 10
0
 20
0
 30
0
  9
$UCSXDIR
 10
1
 20
0
 30
0
  9
$UCSYDIR
 10
0
 20
1
 30
0
  9
$UCSORTHOREF
  2

  9
$UCSORTHOVIEW
 70
0
  9
$UCSORGTOP
 10
0
 20
0
 30
0
  9
$UCSORGBOTTOM
 10
0
 20
0
 30
0
  9
$UCSORGLEFT
 10
0
 20
0
 30
0
  9
$UCSORGRIGHT
 10
0
 20
0
 30
0
  9
$UCSORGFRONT
 10
0
 20
0
 30
0
  9
$UCSORGBACK
 10
0
 20
0
 30
0
  9
$PUCSORG
 10
0
 20
0
 30
0
  9
$PUCSXDIR
 10
1
 20
0
 30
0
  9
$PUCSYDIR
 10
0
 20
1
 30
0
  9
$PUCSORTHOREF
  2

  9
$PUCSORTHOVIEW
 70
0
  9
$PUCSORGTOP
 10
0
 20
0
 30
0
  9
$PUCSORGBOTTOM
 10
0
 20
0
 30
0
  9
$PUCSORGLEFT
 10
0
 20
0
 30
0
  9
$PUCSORGRIGHT
 10
0
 20
0
 30
0
  9
$PUCSORGFRONT
 10
0
 20
0
 30
0
  9
$PUCSORGBACK
 10
0
 20
0
 30
0
  9
$USERI1
 70
0
  9
$USERI2
 70
0
  9
$USERI3
 70
0
  9
$USERI4
 70
0
  9
$USERI5
 70
0
  9
$USERR1
 40
0
  9
$USERR2
 40
0
  9
$USERR3
 40
0
  9
$USERR4
 40
0
  9
$USERR5
 40
0
  9
$WORLDVIEW
 70
1
  9
$SHADEDGE
 70
3
  9
$SHADEDIF
 70
70
  9
$TILEMODE
 70
1
  9
$MAXACTVP
 70
48
  9
$PINSBASE
 10
0
 20
0
 30
0
  9
$PLIMCHECK
 70
0
  9
$PEXTMIN
 10
1E+20
 20
1E+20
 30
1E+20
  9
$PEXTMAX
 10
-1E+20
 20
-1E+20
 30
-1E+20
  9
$PLIMMAX
 10
0
 20
0
  9
$PLIMMIN
 10
0
 20
0
  9
$UNITMODE
 70
0
  9
$VISRETAIN
 70
1
  9
$PLINEGEN
 70
1
  9
$PSLTSCALE
 70
1
  9
$TREEDEPTH
 70
3020
  9
$CMLSTYLE
  2
STANDARD
  9
$CMLJUST
 70
0
  9
$CMLSCALE
 40
1
  9
$PROXYGRAPHICS
 70
1
  9
$MEASUREMENT
 70
1
  9
$CELWEIGHT
370
-1
  9
$ENDCAPS
280
0
  9
$JOINSTYLE
280
0
  9
$LWDISPLAY
290
1
  9
$INSUNITS
 70
4
  9
$HYPERLINKBASE
  1

  9
$XEDIT
290
1
  9
$CEPSNTYPE
380
0
  9
$PSTYLEMODE
290
0
  9
$FINGERPRINTGUID
  2

  9
$VERSIONGUID
  2

  9
$EXTNAMES
290
1
  9
$PSVPSCALE
 40
0
  9
$CSHADOW
280
0
  9
$SHADOWPLANELOCATION
 40
0
  9
$SORTENTS
280
127
  9
$INDEXCTL
280
0
  9
$XCLIPFRAME
280
1
  9
$HALOGAP
280
0
  9
$OBSCOLOR
 70
257
  9
$OBSLTYPE
280
0
  9
$INTERSECTIONDISPLAY
280
0
  9
$INTERSECTIONCOLOR
 70
257
  9
$DIMASSOC
280
1
  9
$PROJECTNAME
  1

  9
$INTERFERECOLOR
 62
1
  0
ENDSEC
  0
SECTION
  2
CLASSES
  0
CLASS
  1
TABLESTYLE
  2
AcDbTableStyle
  3
ObjectDBX Classes
 90
4095
 91
1
280
0
281
0
  0
CLASS
  1
CELLSTYLEMAP
  2
AcDbCellStyleMap
  3
ObjectDBX Classes
 90
1152
 91
1
280
0
281
0
  0
CLASS
  1
ACIDBLOCKREFERENCE
  2
AcIdBlockReference
  3
AcIdViewObj|Product: Inventor Drawing Enabler|Company: Autodesk|Website: www.autodesk.com
 90
1
 91
1
280
0
281
1
  0
CLASS
  1
RASTERVARIABLES
  2
AcDbRasterVariables
  3
ISM
 90
0
 91
1
280
0
281
0
  0
CLASS
  1
IMAGEDEF
  2
AcDbRasterImageDef
  3
ISM
 90
0
 91
1
280
0
281
0
  0
CLASS
  1
IMAGEDEF_REACTOR
  2
AcDbRasterImageDefReactor
  3
ISM
 90
1
 91
1
280
0
281
0
  0
CLASS
  1
IMAGE
  2
AcDbRasterImage
  3
ISM
 90
127
 91
1
280
0
281
1
  0
CLASS
  1
ACAD_EVALUATION_GRAPH
  2
AcDbEvalGraph
  3
ObjectDBX Classes
 90
1153
 91
1
280
0
281
0
  0
CLASS
  1
BLOCKPOINTPARAMETER
  2
AcDbBlockPointParameter
  3
ObjectDBX Classes
 90
1153
 91
1
280
0
281
0
  0
CLASS
  1
BLOCKBASEPOINTPARAMETER
  2
AcDbBlockBasepointParameter
  3
ObjectDBX Classes
 90
1153
 91
1
280
0
281
0
  0
CLASS
  1
BLOCKLOOKUPPARAMETER
  2
AcDbBlockLookupParameter
  3
ObjectDBX Classes
 90
1153
 91
1
280
0
281
0
  0
CLASS
  1
BLOCKVISIBILITYPARAMETER
  2
AcDbBlockVisibilityParameter
  3
ObjectDBX Classes
 90
1153
 91
1
280
0
281
0
  0
CLASS
  1
BLOCKPROPERTIESTABLE
  2
AcDbBlockPropertiesTable
  3
ObjectDBX Classes
 90
1153
 91
1
280
0
281
0
  0
CLASS
  1
BLOCKPOLARPARAMETER
  2
AcDbBlockPolarParameter
  3
ObjectDBX Classes
 90
1153
 91
1
280
0
281
0
  0
CLASS
  1
BLOCKROTATIONPARAMETER
  2
AcDbBlockRotationParameter
  3
ObjectDBX Classes
 90
1153
 91
1
280
0
281
0
  0
CLASS
  1
BLOCKLINEARPARAMETER
  2
AcDbBlockLinearParameter
  3
ObjectDBX Classes
 90
1153
 91
1
280
0
281
0
  0
CLASS
  1
BLOCKXYPARAMETER
  2
AcDbBlockXYParameter
  3
ObjectDBX Classes
 90
1153
 91
1
280
0
281
0
  0
CLASS
  1
BLOCKFLIPPARAMETER
  2
AcDbBlockFlipParameter
  3
ObjectDBX Classes
 90
1153
 91
1
280
0
281
0
  0
CLASS
  1
BLOCKALIGNMENTPARAMETER
  2
AcDbBlockAlignmentParameter
  3
ObjectDBX Classes
 90
1153
 91
1
280
0
281
0
  0
CLASS
  1
BLOCKROTATEACTION
  2
AcDbBlockRotateAction
  3
ObjectDBX Classes
 90
1153
 91
1
280
0
281
0
  0
CLASS
  1
BLOCKSCALEACTION
  2
AcDbBlockScaleAction
  3
ObjectDBX Classes
 90
1153
 91
1
280
0
281
0
  0
CLASS
  1
BLOCKARRAYACTION
  2
AcDbBlockArrayAction
  3
ObjectDBX Classes
 90
1153
 91
1
280
0
281
0
  0
CLASS
  1
BLOCKFLIPACTION
  2
AcDbBlockFlipAction
  3
ObjectDBX Classes
 90
1153
 91
1
280
0
281
0
  0
CLASS
  1
BLOCKLOOKUPACTION
  2
AcDbBlockLookupAction
  3
ObjectDBX Classes
 90
1153
 91
1
280
0
281
0
  0
CLASS
  1
BLOCKMOVEACTION
  2
AcDbBlockMoveAction
  3
ObjectDBX Classes
 90
1153
 91
1
280
0
281
0
  0
CLASS
  1
BLOCKPOLARSTRETCHACTION
  2
AcDbBlockPolarStretchAction
  3
ObjectDBX Classes
 90
1153
 91
1
280
0
281
0
  0
CLASS
  1
BLOCKSTRETCHACTION
  2
AcDbBlockStretchAction
  3
ObjectDBX Classes
 90
1153
 91
1
280
0
281
0
  0
CLASS
  1
BLOCKALIGNMENTGRIP
  2
AcDbBlockAlignmentGrip
  3
ObjectDBX Classes
 90
1153
 91
1
280
0
281
0
  0
CLASS
  1
BLOCKFLIPGRIP
  2
AcDbBlockFlipGrip
  3
ObjectDBX Classes
 90
1153
 91
1
280
0
281
0
  0
CLASS
  1
ACDB_BLOCKREPRESENTATION_DATA
  2
AcDbBlockRepresentationData
  3
ObjectDBX Classes
 90
1153
 91
1
280
0
281
0
  0
CLASS
  1
ACDB_DYNAMICBLOCKPURGEPREVENTER_VERSION
  2
AcDbDynamicBlockPurgePreventer
  3
ObjectDBX Classes
 90
1153
 91
1
280
0
281
0
  0
CLASS
  1
BLOCKLINEARGRIP
  2
AcDbBlockLinearGrip
  3
ObjectDBX Classes
 90
1153
 91
1
280
0
281
0
  0
CLASS
  1
BLOCKLOOKUPGRIP
  2
AcDbBlockLookupGrip
  3
ObjectDBX Classes
 90
1153
 91
1
280
0
281
0
  0
CLASS
  1
BLOCKPOLARGRIP
  2
AcDbBlockPolarGrip
  3
ObjectDBX Classes
 90
1153
 91
1
280
0
281
0
  0
CLASS
  1
BLOCKPROPERTIESTABLEGRIP
  2
AcDbBlockPropertiesTableGrip
  3
ObjectDBX Classes
 90
1153
 91
1
280
0
281
0
  0
CLASS
  1
BLOCKROTATIONGRIP
  2
AcDbBlockRotationGrip
  3
ObjectDBX Classes
 90
1153
 91
1
280
0
281
0
  0
CLASS
  1
BLOCKVISIBILITYGRIP
  2
AcDbBlockVisibilityGrip
  3
ObjectDBX Classes
 90
1153
 91
1
280
0
281
0
  0
CLASS
  1
BLOCKXYGRIP
  2
AcDbBlockXYGrip
  3
ObjectDBX Classes
 90
1153
 91
1
280
0
281
0
  0
CLASS
  1
BLOCKGRIPLOCATIONCOMPONENT
  2
AcDbBlockGripExpr
  3
ObjectDBX Classes
 90
1153
 91
1
280
0
281
0
  0
CLASS
  1
ACDB_DYNAMICBLOCKPROXYNODE
  2
AcDbDynamicBlockProxyNode
  3
ObjectDBX Classes
 90
1153
 91
1
280
0
281
0
  0
CLASS
  1
BLOCKLINEARCONSTRAINTPARAMETER
  2
AcDbBlockLinearConstraintParameter
  3
ObjectDBX Classes
 90
1153
 91
1
280
0
281
0
  0
CLASS
  1
BLOCKHORIZONTALCONSTRAINTPARAMETER
  2
AcDbBlockHorizontalConstraintParameter
  3
ObjectDBX Classes
 90
1153
 91
1
280
0
281
0
  0
CLASS
  1
BLOCKVERTICALCONSTRAINTPARAMETER
  2
AcDbBlockVerticalConstraintParameter
  3
ObjectDBX Classes
 90
1153
 91
1
280
0
281
0
  0
CLASS
  1
BLOCKALIGNEDCONSTRAINTPARAMETER
  2
AcDbBlockAlignedConstraintParameter
  3
ObjectDBX Classes
 90
1153
 91
1
280
0
281
0
  0
CLASS
  1
BLOCKANGULARCONSTRAINTPARAMETER
  2
AcDbBlockAngularConstraintParameter
  3
ObjectDBX Classes
 90
1153
 91
1
280
0
281
0
  0
CLASS
  1
BLOCKDIAMETRICCONSTRAINTPARAMETER
  2
AcDbBlockDiametricConstraintParameter
  3
ObjectDBX Classes
 90
1153
 91
1
280
0
281
0
  0
CLASS
  1
BLOCKRADIALCONSTRAINTPARAMETER
  2
AcDbBlockRadialConstraintParameter
  3
ObjectDBX Classes
 90
1153
 91
1
280
0
281
0
  0
ENDSEC
  0
SECTION
  2
TABLES
  0
TABLE
  2
VPORT
  5
8
330
0
100
AcDbSymbolTable
 70
1
  0
VPORT
  5
258
330
8
100
AcDbSymbolTableRecord
100
AcDbViewportTableRecord
  2
*Active
 70
64
 10
0
 20
0
 11
1
 21
1
 12
598.70518195096929
 22
448.60567035057488
 13
0
 23
0
 14
1
 24
1
 15
0
 25
0
 16
0
 26
0
 36
1
 17
0
 27
0
 37
0
 40
887.21093401936628
 41
1.3383630838751019
 42
50
 43
0
 44
0
 50
0
 51
0
 71
0
 72
20000
 73
20000
 74
1
 75
0
 76
0
 77
0
 78
0
281
0
 65
1
110
0
120
0
130
0
111
1
121
0
131
0
112
0
122
1
132
0
 79
0
146
0
 60
2
 61
5
292
1
282
1
141
0
142
0
 63
250
421
3355443
  0
ENDTAB
  0
TABLE
  2
LTYPE
  5
5
100
AcDbSymbolTable
 70
3
  0
LTYPE
  5
16
330
5
100
AcDbSymbolTableRecord
100
AcDbLinetypeTableRecord
  2
Continuous
  3
Solid line
 70
64
 72
65
 73
0
 40
0
  0
LTYPE
  5
14
330
5
100
AcDbSymbolTableRecord
100
AcDbLinetypeTableRecord
  2
ByBlock
  3

 70
64
 72
65
 73
0
 40
0
  0
LTYPE
  5
15
330
5
100
AcDbSymbolTableRecord
100
AcDbLinetypeTableRecord
  2
ByLayer
  3

 70
64
 72
65
 73
0
 40
0
  0
ENDTAB
  0
TABLE
  2
LAYER
  5
2
100
AcDbSymbolTable
 70
2
  0
LAYER
  5
10
330
2
100
AcDbSymbolTableRecord
100
AcDbLayerTableRecord
 70
64
  2
0
 62
7
  6
Continuous
370
-3
390
F
  0
LAYER
  5
27
330
2
100
AcDbSymbolTableRecord
100
AcDbLayerTableRecord
 70
64
  2
DEFPOINTS
 62
7
  6
Continuous
290
0
370
-3
390
F
  0
ENDTAB
  0
TABLE
  2
STYLE
  5
3
100
AcDbSymbolTable
 70
1
  0
STYLE
  5
11
330
3
100
AcDbSymbolTableRecord
100
AcDbTextStyleTableRecord
  2
Standard
 70
64
 40
0
 41
1
 50
0
 71
0
 42
0.2
  3
txt.shx
  0
ENDTAB
  0
TABLE
  2
VIEW
  5
6
100
AcDbSymbolTable
 70
0
  0
ENDTAB
  0
TABLE
  2
UCS
  5
7
100
AcDbSymbolTable
 70
0
  0
ENDTAB
  0
TABLE
  2
APPID
  5
9
330
0
100
AcDbSymbolTable
 70
2
  0
APPID
  5
12
330
0
100
AcDbSymbolTableRecord
100
AcDbRegAppTableRecord
  2
ACAD
 70
64
  0
APPID
  5
27A
330
0
100
AcDbSymbolTableRecord
100
AcDbRegAppTableRecord
  2
ACAD_MLEADERVER
 70
64
  0
ENDTAB
  0
TABLE
  2
DIMSTYLE
  5
A
330
0
100
AcDbSymbolTable
 70
1
100
AcDbDimStyleTable
 71
0
  0
DIMSTYLE
105
257
330
A
100
AcDbSymbolTableRecord
100
AcDbDimStyleTableRecord
  2
Standard
 70
64
  3

  4

 40
1
 41
0.18
 42
0.0625
 43
0.38
 44
0.18
 45
0
 46
0
 47
0
 48
0
140
0.18
141
0.09
142
0
143
1
144
1
145
0
146
1
147
0.09
148
0
 71
0
 72
0
 73
1
 74
1
 75
0
 76
0
 77
0
 78
0
 79
0
170
0
171
2
172
0
173
0
174
0
175
0
179
0
271
4
272
4
273
2
274
0
275
0
276
0
277
2
278
46
279
0
280
0
281
0
282
0
283
1
284
0
285
0
286
0
288
0
289
0
340
11
371
-2
372
-2
  0
ENDTAB
  0
TABLE
  2
BLOCK_RECORD
  5
1
330
0
100
AcDbSymbolTable
 70
3
  0
BLOCK_RECORD
  5
1F
330
1
100
AcDbSymbolTableRecord
100
AcDbBlockTableRecord
  2
*Model_Space
340
22
 70
1
280
1
281
0
  0
BLOCK_RECORD
  5
254
330
1
100
AcDbSymbolTableRecord
100
AcDbBlockTableRecord
  2
*Paper_Space
340
1E
 70
1
280
1
281
0
  0
ENDTAB
  0
ENDSEC
  0
SECTION
  2
BLOCKS
  0
BLOCK
  5
20
330
1F
100
AcDbEntity
  8
0
100
AcDbBlockBegin
  2
*Model_Space
 70
64
 10
0
 20
0
 30
0
  3
*Model_Space
  0
ENDBLK
  5
21
330
1F
100
AcDbEntity
  8
0
100
AcDbBlockEnd
  0
BLOCK
  5
255
330
254
100
AcDbEntity
  8
0
 67
1
100
AcDbBlockBegin
  2
*Paper_Space
 70
64
 10
0
 20
0
 30
0
  3
*Paper_Space
  0
ENDBLK
  5
256
330
254
100
AcDbEntity
  8
0
100
AcDbBlockEnd
  0
ENDSEC
  0
SECTION
  2
ENTITIES
  0
LINE
  5
28
330
1F
100
AcDbEntity
  8
0
 62
7
100
AcDbLine
 10
996.83521026362575
 20
744.82029310033874
 30
0
 11
824.16265739070536
 21
784.51230771669066
 31
0
  0
LINE
  5
29
330
1F
100
AcDbEntity
  8
0
 62
7
100
AcDbLine
 10
824.16265739070536
 20
784.51230771669066
 30
0
 11
821.86543294044145
 21
791.67394591061418
 31
0
  0
LINE
  5
2A
330
1F
100
AcDbEntity
  8
0
 62
7
100
AcDbLine
 10
821.86543294044145
 20
791.67394591061418
 30
0
 11
561.70554939938449
 21
491.71455425042279
 31
0
  0
LINE
  5
2B
330
1F
100
AcDbEntity
  8
0
 62
7
100
AcDbLine
 10
561.70554939938449
 20
491.71455425042279
 30
0
 11
583.92476359644445
 21
472.44345176590292
 31
0
  0
LINE
  5
2C
330
1F
100
AcDbEntity
  8
0
 62
7
100
AcDbLine
 10
583.92476359644445
 20
472.44345176590292
 30
0
 11
642.2574395005596
 21
390.66749634975707
 31
0
  0
LINE
  5
2D
330
1F
100
AcDbEntity
  8
0
 62
7
100
AcDbLine
 10
642.2574395005596
 20
390.66749634975707
 30
0
 11
590.8440116512611
 21
331.38879307340471
 31
0
  0
ARC
  5
2E
330
1F
100
AcDbEntity
  8
0
 62
7
100
AcDbCircle
 10
598.89441545061231
 20
324.39183479031652
 30
0
 40
10.666134564493603
100
AcDbArc
 50
139.00466617322633
 51
148.57451227266637
  0
ARC
  5
2F
330
1F
100
AcDbEntity
  8
0
 62
7
100
AcDbCircle
 10
598.4923606210624
 20
324.6433144138357
 30
0
 40
10.191935991904755
100
AcDbArc
 50
148.60242530705398
 51
158.22718259707952
  0
ARC
  5
30
330
1F
100
AcDbEntity
  8
0
 62
7
100
AcDbCircle
 10
598.47667890382
 20
324.65412425220978
 30
0
 40
10.173364190354498
100
AcDbArc
 50
158.2509601323857
 51
167.67614737991238
  0
ARC
  5
31
330
1F
100
AcDbEntity
  8
0
 62
7
100
AcDbCircle
 10
598.8067070707848
 20
324.58498379034688
 30
0
 40
10.510544992610553
100
AcDbArc
 50
167.69191798253257
 51
176.74004019192014
  0
ARC
  5
32
330
1F
100
AcDbEntity
  8
0
 62
7
100
AcDbCircle
 10
599.39891705629532
 20
324.55265487127315
 30
0
 40
11.103635179752452
100
AcDbArc
 50
176.74726539981776
 51
185.33725423512894
  0
ARC
  5
33
330
1F
100
AcDbEntity
  8
0
 62
7
100
AcDbCircle
 10
600.14067922622326
 20
324.62204926498424
 30
0
 40
11.848636313929186
100
AcDbArc
 50
185.33771989751148
 51
193.47335936846329
  0
ARC
  5
34
330
1F
100
AcDbEntity
  8
0
 62
7
100
AcDbCircle
 10
600.91147512590385
 20
324.8058646585493
 30
0
 40
12.641046413783021
100
AcDbArc
 50
193.46958049234146
 51
201.212844089533
  0
ARC
  5
35
330
1F
100
AcDbEntity
  8
0
 62
7
100
AcDbCircle
 10
601.60730492480263
 20
325.07448498874805
 30
0
 40
13.386924591850617
100
AcDbArc
 50
201.20704373419912
 51
208.65085716152174
  0
ARC
  5
36
330
1F
100
AcDbEntity
  8
0
 62
7
100
AcDbCircle
 10
602.16126347665511
 20
325.37542454081557
 30
0
 40
14.017347068069331
100
AcDbArc
 50
208.64466369624395
 51
215.89169508094668
  0
ARC
  5
37
330
1F
100
AcDbEntity
  8
0
 62
7
100
AcDbCircle
 10
602.55340438788357
 20
325.65749483395496
 30
0
 40
14.500396028864207
100
AcDbArc
 50
215.88623478316117
 51
223.03416692730241
  0
LINE
  5
38
330
1F
100
AcDbEntity
  8
0
 62
7
100
AcDbLine
 10
591.95438517098819
 20
315.76192629880853
 30
0
 11
881.91566461315688
 21
5.0043627373912614
 31
0
  0
LINE
  5
39
330
1F
100
AcDbEntity
  8
0
 62
7
100
AcDbLine
 10
881.91566461315688
 20
5.0043627373912614
 30
0
 11
901.36412312261109
 21
27.428065053907972
 31
0
  0
LINE
  5
3A
330
1F
100
AcDbEntity
  8
0
 62
7
100
AcDbLine
 10
901.36412312261109
 20
27.428065053907972
 30
0
 11
902.55883108998387
 21
25.7532137511854
 31
0
  0
LINE
  5
3B
330
1F
100
AcDbEntity
  8
0
 62
7
100
AcDbLine
 10
902.55883108998387
 20
25.7532137511854
 30
0
 11
1022.7315526040594
 21
164.3100732826166
 31
0
  0
LINE
  5
3C
330
1F
100
AcDbEntity
  8
0
 62
7
100
AcDbLine
 10
1022.7315526040594
 20
164.3100732826166
 30
0
 11
1023.003221618251
 21
164.62330248275555
 31
0
  0
LINE
  5
3D
330
1F
100
AcDbEntity
  8
0
 62
7
100
AcDbLine
 10
1023.003221618251
 20
164.62330248275555
 30
0
 11
1192.4103628019036
 21
125.68190379431076
 31
0
  0
LINE
  5
3E
330
1F
100
AcDbEntity
  8
0
 62
7
100
AcDbLine
 10
1192.4103628019036
 20
125.68190379431076
 30
0
 11
1187.5626168146928
 21
539.13387019737138
 31
0
  0
LINE
  5
3F
330
1F
100
AcDbEntity
  8
0
 62
7
100
AcDbLine
 10
1187.5626168146928
 20
539.13387019737138
 30
0
 11
1176.8134327294354
 21
541.60477112937906
 31
0
  0
ARC
  5
40
330
1F
100
AcDbEntity
  8
0
 62
7
100
AcDbCircle
 10
1177.6503183898219
 20
545.19613076938288
 30
0
 40
3.6875793784552422
100
AcDbArc
 50
167.22616625217566
 51
256.88259546733991
  0
ARC
  5
41
330
1F
100
AcDbEntity
  8
0
 62
7
100
AcDbCircle
 10
1177.6449693089562
 20
545.17521182118026
 30
0
 40
3.6870511064914191
100
AcDbArc
 50
77.218005549666671
 51
166.89075616984096
  0
LINE
  5
42
330
1F
100
AcDbEntity
  8
0
 62
7
100
AcDbLine
 10
1178.4607000174406
 20
548.77089385288377
 30
0
 11
1187.5298264419653
 21
546.68618558506364
 31
0
  0
LINE
  5
43
330
1F
100
AcDbEntity
  8
0
 62
7
100
AcDbLine
 10
1187.5298264419653
 20
546.68618558506364
 30
0
 11
1186.495892697624
 21
674.33922557951018
 31
0
  0
LINE
  5
44
330
1F
100
AcDbEntity
  8
0
 62
7
100
AcDbLine
 10
1186.495892697624
 20
674.33922557951018
 30
0
 11
1192.3656555999573
 21
699.87396454316945
 31
0
  0
LINE
  5
45
330
1F
100
AcDbEntity
  8
0
 62
7
100
AcDbLine
 10
1192.3656555999573
 20
699.87396454316945
 30
0
 11
1025.4997011576452
 21
738.23122394831762
 31
0
  0
LINE
  5
46
330
1F
100
AcDbEntity
  8
0
 62
7
100
AcDbLine
 10
1025.4997011576452
 20
738.23122394831762
 30
0
 11
1023.0288002256372
 21
727.48203986306055
 31
0
  0
ARC
  5
47
330
1F
100
AcDbEntity
  8
0
 62
7
100
AcDbCircle
 10
1012.2553143621839
 20
729.99174975676715
 30
0
 40
11.061945642634319
100
AcDbArc
 50
257.2220859010738
 51
346.88667581844686
  0
LINE
  5
48
330
1F
100
AcDbEntity
  8
0
 62
7
100
AcDbLine
 10
1009.8087152083721
 20
719.2037567098115
 30
0
 11
1002.6425924848674
 21
720.8510239978167
 31
0
  0
ARC
  5
49
330
1F
100
AcDbEntity
  8
0
 62
7
100
AcDbCircle
 10
1005.152302378571
 20
731.62450986126851
 30
0
 40
11.061945642632242
100
AcDbArc
 50
167.2220859010576
 51
256.88667581846005
  0
LINE
  5
4A
330
1F
100
AcDbEntity
  8
0
 62
7
100
AcDbLine
 10
994.364309331618
 20
734.07110901508292
 30
0
 11
996.83521026362575
 21
744.82029310033874
 31
0
  0
CIRCLE
  5
4B
330
1F
100
AcDbEntity
  8
0
 62
7
100
AcDbCircle
 10
1011.4311231572703
 20
637.53499147997059
 30
0
 40
2.1009682680026716
  0
LINE
  5
4C
330
1F
100
AcDbEntity
  8
0
 62
7
100
AcDbLine
 10
1061.0233257961884
 20
304.69041517217323
 30
0
 11
1056.1634946706267
 21
303.515434688976
 31
0
  0
LINE
  5
4D
330
1F
100
AcDbEntity
  8
0
 62
7
100
AcDbLine
 10
1056.1634946706267
 20
303.515434688976
 30
0
 11
1069.9835837433666
 21
246.3381384213435
 31
0
  0
LINE
  5
4E
330
1F
100
AcDbEntity
  8
0
 62
7
100
AcDbLine
 10
1069.9835837433666
 20
246.3381384213435
 30
0
 11
1074.8438129868573
 21
247.5130273896923
 31
0
  0
LINE
  5
4F
330
1F
100
AcDbEntity
  8
0
 62
7
100
AcDbLine
 10
1074.8438129868573
 20
247.5130273896923
 30
0
 11
1079.7036075064789
 21
248.68784862571806
 31
0
  0
LINE
  5
50
330
1F
100
AcDbEntity
  8
0
 62
7
100
AcDbLine
 10
1079.7036075064789
 20
248.68784862571806
 30
0
 11
1065.8835184337393
 21
305.86514489334979
 31
0
  0
LINE
  5
51
330
1F
100
AcDbEntity
  8
0
 62
7
100
AcDbLine
 10
1065.8835184337393
 20
305.86514489334979
 30
0
 11
1061.0233257961884
 21
304.69041517217323
 31
0
  0
LINE
  5
52
330
1F
100
AcDbEntity
  8
0
 62
7
100
AcDbLine
 10
965.97756220891256
 20
697.91288427370182
 30
0
 11
961.11773108335137
 21
696.73790379050411
 31
0
  0
LINE
  5
53
330
1F
100
AcDbEntity
  8
0
 62
7
100
AcDbLine
 10
961.11773108335137
 20
696.73790379050411
 30
0
 11
974.93782015609133
 21
639.56060752287226
 31
0
  0
LINE
  5
54
330
1F
100
AcDbEntity
  8
0
 62
7
100
AcDbLine
 10
974.93782015609133
 20
639.56060752287226
 30
0
 11
979.79804939958171
 21
640.73549649122072
 31
0
  0
LINE
  5
55
330
1F
100
AcDbEntity
  8
0
 62
7
100
AcDbLine
 10
979.79804939958171
 20
640.73549649122072
 30
0
 11
984.65784391920329
 21
641.91031772724648
 31
0
  0
LINE
  5
56
330
1F
100
AcDbEntity
  8
0
 62
7
100
AcDbLine
 10
984.65784391920329
 20
641.91031772724648
 30
0
 11
970.83775484646344
 21
699.08761399487832
 31
0
  0
LINE
  5
57
330
1F
100
AcDbEntity
  8
0
 62
7
100
AcDbLine
 10
970.83775484646344
 20
699.08761399487832
 30
0
 11
965.97756220891256
 21
697.91288427370182
 31
0
  0
LINE
  5
58
330
1F
100
AcDbEntity
  8
0
 62
7
100
AcDbLine
 10
633.33103066193848
 20
339.17580797363036
 30
0
 11
633.406575249335
 21
339.11028686775524
 31
0
  0
LINE
  5
59
330
1F
100
AcDbEntity
  8
0
 62
7
100
AcDbLine
 10
633.406575249335
 20
339.11028686775524
 30
0
 11
636.6826305430925
 21
342.8875162375769
 31
0
  0
LINE
  5
5A
330
1F
100
AcDbEntity
  8
0
 62
7
100
AcDbLine
 10
636.6826305430925
 20
342.8875162375769
 30
0
 11
636.607085955696
 21
342.953037343452
 31
0
  0
LINE
  5
5B
330
1F
100
AcDbEntity
  8
0
 62
7
100
AcDbLine
 10
636.607085955696
 20
342.953037343452
 30
0
 11
633.33103066193848
 21
339.17580797363036
 31
0
  0
ARC
  5
5C
330
1F
100
AcDbEntity
  8
0
 62
7
100
AcDbCircle
 10
1034.5088069234389
 20
577.00799122722765
 30
0
 40
1.888121789872427
100
AcDbArc
 50
257.04983768798371
 51
268.67133728766936
  0
ARC
  5
5D
330
1F
100
AcDbEntity
  8
0
 62
7
100
AcDbCircle
 10
1034.5089687959626
 20
577.07413096549976
 30
0
 40
1.9542479803375739
100
AcDbArc
 50
268.71155604015979
 51
279.81820388030246
  0
ARC
  5
5E
330
1F
100
AcDbEntity
  8
0
 62
7
100
AcDbCircle
 10
1034.4800017145242
 20
577.23722091301727
 30
0
 40
2.1198889427208911
100
AcDbArc
 50
279.83799643597172
 51
290.17222596875035
  0
ARC
  5
5F
330
1F
100
AcDbEntity
  8
0
 62
7
100
AcDbCircle
 10
1034.3987224853
 20
577.45814482872163
 30
0
 40
2.3552900447735756
100
AcDbArc
 50
290.17488897251047
 51
299.689136771418
  0
ARC
  5
60
330
1F
100
AcDbEntity
  8
0
 62
7
100
AcDbCircle
 10
1034.2642828801352
 20
577.69462409721916
 30
0
 40
2.6273127476298583
100
AcDbArc
 50
299.68181699148175
 51
308.47064894147275
  0
ARC
  5
61
330
1F
100
AcDbEntity
  8
0
 62
7
100
AcDbCircle
 10
1034.0937165120636
 20
577.91019745689232
 30
0
 40
2.9022026620783414
100
AcDbArc
 50
308.45939349051497
 51
316.68361845857947
  0
ARC
  5
62
330
1F
100
AcDbEntity
  8
0
 62
7
100
AcDbCircle
 10
1033.9127452343669
 20
578.08170203884254
 30
0
 40
3.1515298719051792
100
AcDbArc
 50
316.67213480590505
 51
324.50606364006137
  0
ARC
  5
63
330
1F
100
AcDbEntity
  8
0
 62
7
100
AcDbCircle
 10
1033.7447589003975
 20
578.202201467117
 30
0
 40
3.3582645167688621
100
AcDbArc
 50
324.49630172886862
 51
332.09867529023524
  0
ARC
  5
64
330
1F
100
AcDbEntity
  8
0
 62
7
100
AcDbCircle
 10
1033.6019674516174
 20
578.2782984728708
 30
0
 40
3.5200667857505508
100
AcDbArc
 50
332.09164690511119
 51
339.59106143651383
  0
ARC
  5
65
330
1F
100
AcDbEntity
  8
0
 62
7
100
AcDbCircle
 10
1033.4814831394024
 20
578.32337928865456
 30
0
 40
3.6487085198531028
100
AcDbArc
 50
339.58735702462178
 51
347.07441651340724
  0
ARC
  5
66
330
1F
100
AcDbEntity
  8
0
 62
7
100
AcDbCircle
 10
1033.4820548116659
 20
578.32586624975352
 30
0
 40
3.64870852203829
100
AcDbArc
 50
347.03434520840472
 51
354.52140469269381
  0
ARC
  5
67
330
1F
100
AcDbEntity
  8
0
 62
7
100
AcDbCircle
 10
1033.6101306342687
 20
578.31381087037926
 30
0
 40
3.5200667915663795
100
AcDbArc
 50
354.51770028920964
 51
2.0171148082009078
  0
ARC
  5
68
330
1F
100
AcDbEntity
  8
0
 62
7
100
AcDbCircle
 10
1033.7718181580658
 20
578.31991768724947
 30
0
 40
3.3582645335992356
100
AcDbArc
 50
2.0100864484124306
 51
9.6124599716222221
  0
ARC
  5
69
330
1F
100
AcDbEntity
  8
0
 62
7
100
AcDbCircle
 10
1033.975560597692
 20
578.35496831308319
 30
0
 40
3.1515298706873853
100
AcDbArc
 50
9.6026980779778359
 51
17.436626915161451
  0
ARC
  5
6A
330
1F
100
AcDbEntity
  8
0
 62
7
100
AcDbCircle
 10
1034.2132567189983
 20
578.43023436574322
 30
0
 40
2.9022026612897722
100
AcDbArc
 50
17.425143259796364
 51
25.649368230092243
  0
ARC
  5
6B
330
1F
100
AcDbEntity
  8
0
 62
7
100
AcDbCircle
 10
1034.4608355822452
 20
578.54968922251192
 30
0
 40
2.6273127522713207
100
AcDbArc
 50
25.638112785792142
 51
34.426944720226118
  0
ARC
  5
6C
330
1F
100
AcDbEntity
  8
0
 62
7
100
AcDbCircle
 10
1034.6850428096022
 20
578.7037268314167
 30
0
 40
2.355290023885368
100
AcDbArc
 50
34.419624905769972
 51
43.933872789245193
  0
ARC
  5
6D
330
1F
100
AcDbEntity
  8
0
 62
7
100
AcDbCircle
 10
1034.8546331504026
 20
578.86698366367193
 30
0
 40
2.1198889487280725
100
AcDbArc
 50
43.936535765499229
 51
54.270765268897762
  0
ARC
  5
6E
330
1F
100
AcDbEntity
  8
0
 62
7
100
AcDbCircle
 10
1034.9519081983838
 20
579.0010545047835
 30
0
 40
1.9542479784744284
100
AcDbArc
 50
54.290557833902845
 51
65.3972056846505
  0
ARC
  5
6F
330
1F
100
AcDbEntity
  8
0
 62
7
100
AcDbCircle
 10
1034.9806434296893
 20
579.06062611852417
 30
0
 40
1.8881217917870028
100
AcDbArc
 50
65.437424437726989
 51
77.0589240255708
  0
LINE
  5
70
330
1F
100
AcDbEntity
  8
0
 62
7
100
AcDbLine
 10
1035.4034861819557
 20
580.90079130335857
 30
0
 11
1017.0582120097824
 21
585.1177955606521
 31
0
  0
ARC
  5
71
330
1F
100
AcDbEntity
  8
0
 62
7
100
AcDbCircle
 10
1016.6350774385456
 20
583.27769746316346
 30
0
 40
1.8881217846730558
100
AcDbArc
 50
77.049837672025646
 51
88.671337303758932
  0
ARC
  5
72
330
1F
100
AcDbEntity
  8
0
 62
7
100
AcDbCircle
 10
1016.6349155661047
 20
583.21155770985479
 30
0
 40
1.9542479901695557
100
AcDbArc
 50
88.711556068150685
 51
99.81820385223881
  0
ARC
  5
73
330
1F
100
AcDbEntity
  8
0
 62
7
100
AcDbCircle
 10
1016.6638826459928
 20
583.04846777522675
 30
0
 40
2.1198889395876956
100
AcDbArc
 50
99.83799642824691
 51
110.17222597633112
  0
ARC
  5
74
330
1F
100
AcDbEntity
  8
0
 62
7
100
AcDbCircle
 10
1016.7451618688535
 20
582.827543871935
 30
0
 40
2.3552900277946294
100
AcDbArc
 50
110.17488893817332
 51
119.68913680582136
  0
ARC
  5
75
330
1F
100
AcDbEntity
  8
0
 62
7
100
AcDbCircle
 10
1016.8796014847962
 20
582.59106458267217
 30
0
 40
2.6273127540286239
100
AcDbArc
 50
119.68181700223839
 51
128.47064893078337
  0
ARC
  5
76
330
1F
100
AcDbEntity
  8
0
 62
7
100
AcDbCircle
 10
1017.0501678526925
 20
582.37549122458961
 30
0
 40
2.9022026671226193
100
AcDbArc
 50
128.45939349768341
 51
136.68361845142744
  0
ARC
  5
77
330
1F
100
AcDbEntity
  8
0
 62
7
100
AcDbCircle
 10
1017.231139132488
 20
582.2039866418254
 30
0
 40
3.1515298790348338
100
AcDbArc
 50
136.67213481475386
 51
144.50606363116287
  0
ARC
  5
78
330
1F
100
AcDbEntity
  8
0
 62
7
100
AcDbCircle
 10
1017.39912547313
 20
582.08348721055791
 30
0
 40
3.3582645310689263
100
AcDbArc
 50
144.49630174508275
 51
152.09867527403165
  0
ARC
  5
79
330
1F
100
AcDbEntity
  8
0
 62
7
100
AcDbCircle
 10
1017.5419169234552
 20
582.00739020617334
 30
0
 40
3.52006680077519
100
AcDbArc
 50
152.09164692114757
 51
159.59106142049845
  0
ARC
  5
7A
330
1F
100
AcDbEntity
  8
0
 62
7
100
AcDbCircle
 10
1017.6624012188263
 20
581.9623093974817
 30
0
 40
3.6487085166178921
100
AcDbArc
 50
159.58735702130843
 51
167.07441651674895
  0
ARC
  5
7B
330
1F
100
AcDbEntity
  8
0
 62
7
100
AcDbCircle
 10
1017.6618295358664
 20
581.959822437689
 30
0
 40
3.6487085080860515
100
AcDbArc
 50
167.03434519401435
 51
174.52140470697665
  0
ARC
  5
7C
330
1F
100
AcDbEntity
  8
0
 62
7
100
AcDbCircle
 10
1017.5337537308581
 20
581.97187781471018
 30
0
 40
3.5200667953531051
100
AcDbArc
 50
174.51770029323438
 51
182.01711480414897
  0
ARC
  5
7D
330
1F
100
AcDbEntity
  8
0
 62
7
100
AcDbCircle
 10
1017.3720661891811
 20
581.96577099651915
 30
0
 40
3.3582645194705218
100
AcDbArc
 50
182.01008643235227
 51
189.61245998758275
  0
ARC
  5
7E
330
1F
100
AcDbEntity
  8
0
 62
7
100
AcDbCircle
 10
1017.1683237652937
 20
581.93072037252148
 30
0
 40
3.1515298723830347
100
AcDbArc
 50
189.60269808012148
 51
197.43662691308847
  0
ARC
  5
7F
330
1F
100
AcDbEntity
  8
0
 62
7
100
AcDbCircle
 10
1016.9306276394354
 20
581.85545431832031
 30
0
 40
2.9022026581810327
100
AcDbArc
 50
197.42514325543431
 51
205.64936823456028
  0
ARC
  5
80
330
1F
100
AcDbEntity
  8
0
 62
7
100
AcDbCircle
 10
1016.6830487650323
 20
581.735999454568
 30
0
 40
2.6273127360829185
100
AcDbArc
 50
205.63811275868062
 51
214.42694474737
  0
ARC
  5
81
330
1F
100
AcDbEntity
  8
0
 62
7
100
AcDbCircle
 10
1016.4588415704912
 20
581.58196186907935
 30
0
 40
2.3552900480033485
100
AcDbArc
 50
214.41962495466237
 51
223.93387274048678
  0
ARC
  5
82
330
1F
100
AcDbEntity
  8
0
 62
7
100
AcDbCircle
 10
1016.2892512070456
 20
581.4187050170458
 30
0
 40
2.1198889428155008
100
AcDbArc
 50
223.93653575103056
 51
234.27076528333711
  0
ARC
  5
83
330
1F
100
AcDbEntity
  8
0
 62
7
100
AcDbCircle
 10
1016.1919761693558
 20
581.28463419144316
 30
0
 40
1.9542479911619155
100
AcDbArc
 50
234.29055787002289
 51
245.39720564844922
  0
ARC
  5
84
330
1F
100
AcDbEntity
  8
0
 62
7
100
AcDbCircle
 10
1016.1632409321429
 20
581.22506256815109
 30
0
 40
1.8881217933310004
100
AcDbArc
 50
245.43742444254497
 51
257.05892402083231
  0
LINE
  5
85
330
1F
100
AcDbEntity
  8
0
 62
7
100
AcDbLine
 10
1015.7403981793785
 20
579.38489738184694
 30
0
 11
1034.0856723515494
 21
575.1678931245541
 31
0
  0
LINE
  5
86
330
1F
100
AcDbEntity
  8
0
 62
1
100
AcDbLine
 10
1023.003221618251
 20
164.62330248275555
 30
0
 11
824.16265739070536
 21
784.51230771669066
 31
0
  0
LINE
  5
87
330
1F
100
AcDbEntity
  8
0
 62
1
100
AcDbLine
 10
797.77664741485592
 20
763.89984786804246
 30
0
 11
1008.5499873349179
 21
147.95881153870675
 31
0
  0
LINE
  5
88
330
1F
100
AcDbEntity
  8
0
 62
1
100
AcDbLine
 10
772.2097025140597
 20
734.4216472528343
 30
0
 11
992.93442563376834
 21
129.95436625469813
 31
0
  0
LINE
  5
89
330
1F
100
AcDbEntity
  8
0
 62
1
100
AcDbLine
 10
744.78111558241835
 20
702.79700882615157
 30
0
 11
974.82555798700309
 21
109.07518669386707
 31
0
  0
LINE
  5
8A
330
1F
100
AcDbEntity
  8
0
 62
1
100
AcDbLine
 10
715.87446185563431
 20
669.46818753057494
 30
0
 11
955.55445550248044
 21
86.855972496815866
 31
0
  0
LINE
  5
8B
330
1F
100
AcDbEntity
  8
0
 62
1
100
AcDbLine
 10
901.36412312261109
 20
27.428065053907972
 30
0
 11
642.25743131136062
 21
390.66761160063646
 31
0
  0
LINE
  5
8C
330
1F
100
AcDbEntity
  8
0
 62
7
100
AcDbLine
 10
940.27687006355484
 20
801.54292369275834
 30
0
 11
940.481701343914
 21
796.54692250353969
 31
0
  0
LINE
  5
8D
330
1F
100
AcDbEntity
  8
0
 62
7
100
AcDbLine
 10
940.481701343914
 20
796.54692250353969
 30
0
 11
969.59679152187357
 21
797.74126048853
 31
0
  0
LINE
  5
8E
330
1F
100
AcDbEntity
  8
0
 62
7
100
AcDbLine
 10
969.59679152187357
 20
797.74126048853
 30
0
 11
970.48512548755912
 21
797.777861546545
 31
0
  0
LINE
  5
8F
330
1F
100
AcDbEntity
  8
0
 62
7
100
AcDbLine
 10
970.48512548755912
 20
797.777861546545
 30
0
 11
999.2564726879491
 21
798.95820535218093
 31
0
  0
LINE
  5
90
330
1F
100
AcDbEntity
  8
0
 62
7
100
AcDbLine
 10
999.2564726879491
 20
798.95820535218093
 30
0
 11
999.05123299269655
 21
803.95419816714048
 31
0
  0
LINE
  5
91
330
1F
100
AcDbEntity
  8
0
 62
7
100
AcDbLine
 10
999.05123299269655
 20
803.95419816714048
 30
0
 11
1057.8260043367311
 21
806.36548101578171
 31
0
  0
LINE
  5
92
330
1F
100
AcDbEntity
  8
0
 62
7
100
AcDbLine
 10
1057.8260043367311
 20
806.36548101578171
 30
0
 11
1057.5427486322774
 21
820.18591677802033
 31
0
  0
LINE
  5
93
330
1F
100
AcDbEntity
  8
0
 62
7
100
AcDbLine
 10
1057.5427486322774
 20
820.18591677802033
 30
0
 11
1057.2593637039483
 21
834.00667675989507
 31
0
  0
LINE
  5
94
330
1F
100
AcDbEntity
  8
0
 62
7
100
AcDbLine
 10
1057.2593637039483
 20
834.00667675989507
 30
0
 11
998.43555496188355
 21
834.00688802171248
 31
0
  0
LINE
  5
95
330
1F
100
AcDbEntity
  8
0
 62
7
100
AcDbLine
 10
998.43555496188355
 20
834.00688802171248
 30
0
 11
998.43559129130119
 21
839.00676300738678
 31
0
  0
LINE
  5
96
330
1F
100
AcDbEntity
  8
0
 62
7
100
AcDbLine
 10
998.43559129130119
 20
839.00676300738678
 30
0
 11
968.58915554134114
 21
839.00684563765481
 31
0
  0
LINE
  5
97
330
1F
100
AcDbEntity
  8
0
 62
7
100
AcDbLine
 10
968.58915554134114
 20
839.00684563765481
 30
0
 11
967.19587455779561
 21
839.00687845660059
 31
0
  0
LINE
  5
98
330
1F
100
AcDbEntity
  8
0
 62
7
100
AcDbLine
 10
967.19587455779561
 20
839.00687845660059
 30
0
 11
939.6113699472138
 21
839.00717010239089
 31
0
  0
LINE
  5
99
330
1F
100
AcDbEntity
  8
0
 62
7
100
AcDbLine
 10
939.6113699472138
 20
839.00717010239089
 30
0
 11
939.61134617918492
 21
834.006682494377
 31
0
  0
LINE
  5
9A
330
1F
100
AcDbEntity
  8
0
 62
7
100
AcDbLine
 10
939.61134617918492
 20
834.006682494377
 30
0
 11
593.88941333392142
 21
834.00748869549341
 31
0
  0
LINE
  5
9B
330
1F
100
AcDbEntity
  8
0
 62
7
100
AcDbLine
 10
593.88941333392142
 20
834.00748869549341
 30
0
 11
593.88944128908
 21
839.00777209606065
 31
0
  0
LINE
  5
9C
330
1F
100
AcDbEntity
  8
0
 62
7
100
AcDbLine
 10
593.88944128908
 20
839.00777209606065
 30
0
 11
535.06522831925167
 21
839.00777077617181
 31
0
  0
LINE
  5
9D
330
1F
100
AcDbEntity
  8
0
 62
7
100
AcDbLine
 10
535.06522831925167
 20
839.00777077617181
 30
0
 11
535.06520036409324
 21
834.00748737560457
 31
0
  0
LINE
  5
9E
330
1F
100
AcDbEntity
  8
0
 62
7
100
AcDbLine
 10
535.06520036409324
 20
834.00748737560457
 30
0
 11
476.24102404862458
 21
834.00769110058832
 31
0
  0
LINE
  5
9F
330
1F
100
AcDbEntity
  8
0
 62
7
100
AcDbLine
 10
476.24102404862458
 20
834.00769110058832
 30
0
 11
476.76884239702179
 21
808.27780290995054
 31
0
  0
LINE
  5
A0
330
1F
100
AcDbEntity
  8
0
 62
7
100
AcDbLine
 10
476.76884239702179
 20
808.27780290995054
 30
0
 11
477.29605147278295
 21
782.54773879196648
 31
0
  0
LINE
  5
A1
330
1F
100
AcDbEntity
  8
0
 62
7
100
AcDbLine
 10
477.29605147278295
 20
782.54773879196648
 30
0
 11
536.07082281681755
 21
784.95902164060772
 31
0
  0
LINE
  5
A2
330
1F
100
AcDbEntity
  8
0
 62
7
100
AcDbLine
 10
536.07082281681755
 20
784.95902164060772
 30
0
 11
536.27597664196219
 21
779.96323135824355
 31
0
  0
LINE
  5
A3
330
1F
100
AcDbEntity
  8
0
 62
7
100
AcDbLine
 10
536.27597664196219
 20
779.96323135824355
 30
0
 11
562.55867343651676
 21
781.04147381870143
 31
0
  0
LINE
  5
A4
330
1F
100
AcDbEntity
  8
0
 62
7
100
AcDbLine
 10
562.55867343651676
 20
781.04147381870143
 30
0
 11
563.78339891169617
 21
781.09191831940632
 31
0
  0
LINE
  5
A5
330
1F
100
AcDbEntity
  8
0
 62
7
100
AcDbLine
 10
563.78339891169617
 20
781.09191831940632
 30
0
 11
595.05033957110379
 21
782.37450583262569
 31
0
  0
LINE
  5
A6
330
1F
100
AcDbEntity
  8
0
 62
7
100
AcDbLine
 10
595.05033957110379
 20
782.37450583262569
 30
0
 11
594.84534324993547
 21
787.37058535511892
 31
0
  0
LINE
  5
A7
330
1F
100
AcDbEntity
  8
0
 62
7
100
AcDbLine
 10
594.84534324993547
 20
787.37058535511892
 30
0
 11
940.27687006355484
 21
801.54292369275834
 31
0
  0
LINE
  5
A8
330
1F
100
AcDbEntity
  8
0
 62
1
100
AcDbLine
 10
1057.54295367715
 20
820.18588012366081
 30
0
 11
476.768807417514
 21
808.27751618209959
 31
0
  0
LINE
  5
A9
330
1F
100
AcDbEntity
  8
0
 62
7
100
AcDbLine
 10
679.92480710003736
 20
26.597977100338827
 30
0
 11
680.1296383803965
 21
21.601975911120164
 31
0
  0
LINE
  5
AA
330
1F
100
AcDbEntity
  8
0
 62
7
100
AcDbLine
 10
680.1296383803965
 20
21.601975911120164
 30
0
 11
709.24472855835609
 21
22.796313896110508
 31
0
  0
LINE
  5
AB
330
1F
100
AcDbEntity
  8
0
 62
7
100
AcDbLine
 10
709.24472855835609
 20
22.796313896110508
 30
0
 11
710.13306252404163
 21
22.832914954125489
 31
0
  0
LINE
  5
AC
330
1F
100
AcDbEntity
  8
0
 62
7
100
AcDbLine
 10
710.13306252404163
 20
22.832914954125489
 30
0
 11
738.90440972443162
 21
24.013258759761872
 31
0
  0
LINE
  5
AD
330
1F
100
AcDbEntity
  8
0
 62
7
100
AcDbLine
 10
738.90440972443162
 20
24.013258759761872
 30
0
 11
738.699170029179
 21
29.009251574721414
 31
0
  0
LINE
  5
AE
330
1F
100
AcDbEntity
  8
0
 62
7
100
AcDbLine
 10
738.699170029179
 20
29.009251574721414
 30
0
 11
797.47394137321362
 21
31.4205344233622
 31
0
  0
LINE
  5
AF
330
1F
100
AcDbEntity
  8
0
 62
7
100
AcDbLine
 10
797.47394137321362
 20
31.4205344233622
 30
0
 11
797.1906856687599
 21
45.240970185600844
 31
0
  0
LINE
  5
B0
330
1F
100
AcDbEntity
  8
0
 62
7
100
AcDbLine
 10
797.1906856687599
 20
45.240970185600844
 30
0
 11
796.90730074043086
 21
59.061730167475972
 31
0
  0
LINE
  5
B1
330
1F
100
AcDbEntity
  8
0
 62
7
100
AcDbLine
 10
796.90730074043086
 20
59.061730167475972
 30
0
 11
738.08349199836607
 21
59.061941429293427
 31
0
  0
LINE
  5
B2
330
1F
100
AcDbEntity
  8
0
 62
7
100
AcDbLine
 10
738.08349199836607
 20
59.061941429293427
 30
0
 11
738.08352832778371
 21
64.06181641496724
 31
0
  0
LINE
  5
B3
330
1F
100
AcDbEntity
  8
0
 62
7
100
AcDbLine
 10
738.08352832778371
 20
64.06181641496724
 30
0
 11
708.23709257782355
 21
64.0618990452357
 31
0
  0
LINE
  5
B4
330
1F
100
AcDbEntity
  8
0
 62
7
100
AcDbLine
 10
708.23709257782355
 20
64.0618990452357
 30
0
 11
706.84381159427812
 21
64.061931864181531
 31
0
  0
LINE
  5
B5
330
1F
100
AcDbEntity
  8
0
 62
7
100
AcDbLine
 10
706.84381159427812
 20
64.061931864181531
 30
0
 11
679.25930698369632
 21
64.0622235099714
 31
0
  0
LINE
  5
B6
330
1F
100
AcDbEntity
  8
0
 62
7
100
AcDbLine
 10
679.25930698369632
 20
64.0622235099714
 30
0
 11
679.25928321566744
 21
59.06173590195742
 31
0
  0
LINE
  5
B7
330
1F
100
AcDbEntity
  8
0
 62
7
100
AcDbLine
 10
679.25928321566744
 20
59.06173590195742
 30
0
 11
333.53735037040394
 21
59.062542103073852
 31
0
  0
LINE
  5
B8
330
1F
100
AcDbEntity
  8
0
 62
7
100
AcDbLine
 10
333.53735037040394
 20
59.062542103073852
 30
0
 11
333.53737832556249
 21
64.062825503641108
 31
0
  0
LINE
  5
B9
330
1F
100
AcDbEntity
  8
0
 62
7
100
AcDbLine
 10
333.53737832556249
 20
64.062825503641108
 30
0
 11
274.71316535573419
 21
64.062824183752724
 31
0
  0
LINE
  5
BA
330
1F
100
AcDbEntity
  8
0
 62
7
100
AcDbLine
 10
274.71316535573419
 20
64.062824183752724
 30
0
 11
274.71313740057576
 21
59.062540783185483
 31
0
  0
LINE
  5
BB
330
1F
100
AcDbEntity
  8
0
 62
7
100
AcDbLine
 10
274.71313740057576
 20
59.062540783185483
 30
0
 11
215.8889610851071
 21
59.062744508168834
 31
0
  0
LINE
  5
BC
330
1F
100
AcDbEntity
  8
0
 62
7
100
AcDbLine
 10
215.8889610851071
 20
59.062744508168834
 30
0
 11
216.4167794335043
 21
33.332856317531
 31
0
  0
LINE
  5
BD
330
1F
100
AcDbEntity
  8
0
 62
7
100
AcDbLine
 10
216.4167794335043
 20
33.332856317531
 30
0
 11
216.94398850926547
 21
7.6027921995469434
 31
0
  0
LINE
  5
BE
330
1F
100
AcDbEntity
  8
0
 62
7
100
AcDbLine
 10
216.94398850926547
 20
7.6027921995469434
 30
0
 11
275.71875985330013
 21
10.014075048188637
 31
0
  0
LINE
  5
BF
330
1F
100
AcDbEntity
  8
0
 62
7
100
AcDbLine
 10
275.71875985330013
 20
10.014075048188637
 30
0
 11
275.92391367844465
 21
5.0182847658239957
 31
0
  0
LINE
  5
C0
330
1F
100
AcDbEntity
  8
0
 62
7
100
AcDbLine
 10
275.92391367844465
 20
5.0182847658239957
 30
0
 11
302.20661047299927
 21
6.096527226282376
 31
0
  0
LINE
  5
C1
330
1F
100
AcDbEntity
  8
0
 62
7
100
AcDbLine
 10
302.20661047299927
 20
6.096527226282376
 30
0
 11
303.43133594817863
 21
6.1469717269873065
 31
0
  0
LINE
  5
C2
330
1F
100
AcDbEntity
  8
0
 62
7
100
AcDbLine
 10
303.43133594817863
 20
6.1469717269873065
 30
0
 11
334.69827660758631
 21
7.4295592402065829
 31
0
  0
LINE
  5
C3
330
1F
100
AcDbEntity
  8
0
 62
7
100
AcDbLine
 10
334.69827660758631
 20
7.4295592402065829
 30
0
 11
334.49328028641793
 21
12.425638762699922
 31
0
  0
LINE
  5
C4
330
1F
100
AcDbEntity
  8
0
 62
7
100
AcDbLine
 10
334.49328028641793
 20
12.425638762699922
 30
0
 11
679.92480710003736
 21
26.597977100338827
 31
0
  0
LINE
  5
C5
330
1F
100
AcDbEntity
  8
0
 62
1
100
AcDbLine
 10
797.19089071363248
 20
45.24093353124124
 30
0
 11
216.4167444539965
 21
33.332569589680048
 31
0
  0
LINE
  5
C6
330
1F
100
AcDbEntity
  8
0
 62
7
100
AcDbLine
 10
200.57830810003739
 20
845.35748454998259
 30
0
 11
203.04920903204524
 21
834.60830046472665
 31
0
  0
ARC
  5
C7
330
1F
100
AcDbEntity
  8
0
 62
7
100
AcDbCircle
 10
192.26121598509224
 20
832.16170131091235
 30
0
 40
11.061945642632242
100
AcDbArc
 50
283.11332418153972
 51
12.777914098941849
  0
LINE
  5
C8
330
1F
100
AcDbEntity
  8
0
 62
7
100
AcDbLine
 10
194.77092587879582
 20
821.38821544746054
 30
0
 11
187.60480315529082
 21
819.74094815945523
 31
0
  0
ARC
  5
C9
330
1F
100
AcDbEntity
  8
0
 62
7
100
AcDbCircle
 10
185.15820400147931
 20
830.52894120641088
 30
0
 40
11.061945642634319
100
AcDbArc
 50
193.11332418155257
 51
282.77791409892473
  0
LINE
  5
CA
330
1F
100
AcDbEntity
  8
0
 62
7
100
AcDbLine
 10
174.38471813802602
 20
828.01923131270439
 30
0
 11
171.913817206018
 21
838.76841539796146
 31
0
  0
LINE
  5
CB
330
1F
100
AcDbEntity
  8
0
 62
7
100
AcDbLine
 10
171.913817206018
 20
838.76841539796146
 30
0
 11
5.0478627637058651
 21
800.41115599281318
 31
0
  0
LINE
  5
CC
330
1F
100
AcDbEntity
  8
0
 62
7
100
AcDbLine
 10
5.0478627637058651
 20
800.41115599281318
 30
0
 11
10.917625666039072
 21
774.876417029154
 31
0
  0
LINE
  5
CD
330
1F
100
AcDbEntity
  8
0
 62
7
100
AcDbLine
 10
10.917625666039072
 20
774.876417029154
 30
0
 11
9.8836919216978742
 21
647.22337703470748
 31
0
  0
LINE
  5
CE
330
1F
100
AcDbEntity
  8
0
 62
7
100
AcDbLine
 10
9.8836919216978742
 20
647.22337703470748
 30
0
 11
18.952818346222614
 21
649.30808530252773
 31
0
  0
ARC
  5
CF
330
1F
100
AcDbEntity
  8
0
 62
7
100
AcDbCircle
 10
19.768549054707005
 20
645.71240327082421
 30
0
 40
3.6870511064914191
100
AcDbArc
 50
13.109243830157281
 51
102.78199445033393
  0
ARC
  5
D0
330
1F
100
AcDbEntity
  8
0
 62
7
100
AcDbCircle
 10
19.763199973841292
 20
645.73332221902672
 30
0
 40
3.6875793784552422
100
AcDbArc
 50
283.11740453266054
 51
12.773833747824243
  0
LINE
  5
D1
330
1F
100
AcDbEntity
  8
0
 62
7
100
AcDbLine
 10
20.600085634227867
 20
642.1419625790229
 30
0
 11
9.8509015489704836
 21
639.67106164701522
 31
0
  0
LINE
  5
D2
330
1F
100
AcDbEntity
  8
0
 62
7
100
AcDbLine
 10
9.8509015489704836
 20
639.67106164701522
 30
0
 11
5.0031555617595416
 21
226.2190952439546
 31
0
  0
LINE
  5
D3
330
1F
100
AcDbEntity
  8
0
 62
7
100
AcDbLine
 10
5.0031555617595416
 20
226.2190952439546
 30
0
 11
174.41029674541218
 21
265.16049393239939
 31
0
  0
LINE
  5
D4
330
1F
100
AcDbEntity
  8
0
 62
7
100
AcDbLine
 10
174.41029674541218
 20
265.16049393239939
 30
0
 11
174.68196575960374
 21
264.84726473226044
 31
0
  0
LINE
  5
D5
330
1F
100
AcDbEntity
  8
0
 62
7
100
AcDbLine
 10
174.68196575960374
 20
264.84726473226044
 30
0
 11
294.85468727367936
 21
126.29040520082924
 31
0
  0
LINE
  5
D6
330
1F
100
AcDbEntity
  8
0
 62
7
100
AcDbLine
 10
294.85468727367936
 20
126.29040520082924
 30
0
 11
296.049395241052
 21
127.96525650355181
 31
0
  0
LINE
  5
D7
330
1F
100
AcDbEntity
  8
0
 62
7
100
AcDbLine
 10
296.049395241052
 20
127.96525650355181
 30
0
 11
315.49785375050624
 21
105.5415541870351
 31
0
  0
LINE
  5
D8
330
1F
100
AcDbEntity
  8
0
 62
7
100
AcDbLine
 10
315.49785375050624
 20
105.5415541870351
 30
0
 11
605.45913319267493
 21
416.29911774845237
 31
0
  0
ARC
  5
D9
330
1F
100
AcDbEntity
  8
0
 62
7
100
AcDbCircle
 10
594.86011397871448
 20
426.19468628118312
 30
0
 40
14.500396025070254
100
AcDbArc
 50
316.96583307176047
 51
324.11376521777487
  0
ARC
  5
DA
330
1F
100
AcDbEntity
  8
0
 62
7
100
AcDbCircle
 10
595.25225488756018
 20
425.91261599011091
 30
0
 40
14.017347067417594
100
AcDbArc
 50
324.10830491888481
 51
331.3553363039249
  0
ARC
  5
DB
330
1F
100
AcDbEntity
  8
0
 62
7
100
AcDbCircle
 10
595.80621344027327
 20
425.61167643773348
 30
0
 40
13.386924590295116
100
AcDbArc
 50
331.34914283805267
 51
338.79295626623968
  0
ARC
  5
DC
330
1F
100
AcDbEntity
  8
0
 62
7
100
AcDbCircle
 10
596.502043242033
 20
425.34305610685993
 30
0
 40
12.641046409316354
100
AcDbArc
 50
338.7871559090903
 51
346.53041950902286
  0
ARC
  5
DD
330
1F
100
AcDbEntity
  8
0
 62
7
100
AcDbCircle
 10
597.27283913990857
 20
425.15924071421989
 30
0
 40
11.84863631143328
100
AcDbArc
 50
346.52664063067454
 51
354.66228010334339
  0
ARC
  5
DE
330
1F
100
AcDbEntity
  8
0
 62
7
100
AcDbCircle
 10
598.01460131025635
 20
425.08984632086526
 30
0
 40
11.103635176871736
100
AcDbArc
 50
354.66274576375042
 51
3.2527346012955785
  0
ARC
  5
DF
330
1F
100
AcDbEntity
  8
0
 62
7
100
AcDbCircle
 10
598.606811291541
 20
425.12217523980542
 30
0
 40
10.510544993956467
100
AcDbArc
 50
3.2599598086750183
 51
12.308082016899611
  0
ARC
  5
E0
330
1F
100
AcDbEntity
  8
0
 62
7
100
AcDbCircle
 10
598.9368394625551
 20
425.19131570268547
 30
0
 40
10.17336418752731
100
AcDbArc
 50
12.323852618769875
 51
21.749039868922175
  0
ARC
  5
E1
330
1F
100
AcDbEntity
  8
0
 62
7
100
AcDbCircle
 10
598.92115774123192
 20
425.18050586279662
 30
0
 40
10.191935993429082
100
AcDbArc
 50
21.772817403631194
 51
31.397574692214341
  0
ARC
  5
E2
330
1F
100
AcDbEntity
  8
0
 62
7
100
AcDbCircle
 10
598.51910291131742
 20
424.92902623868918
 30
0
 40
10.666134566635764
100
AcDbArc
 50
31.42548772830585
 51
40.995333825819408
  0
LINE
  5
E3
330
1F
100
AcDbEntity
  8
0
 62
7
100
AcDbLine
 10
606.569506712402
 20
431.92598452304856
 30
0
 11
555.15607886310352
 21
491.20468779940092
 31
0
  0
LINE
  5
E4
330
1F
100
AcDbEntity
  8
0
 62
7
100
AcDbLine
 10
555.15607886310352
 20
491.20468779940092
 30
0
 11
613.48875476721867
 21
572.98064321554671
 31
0
  0
LINE
  5
E5
330
1F
100
AcDbEntity
  8
0
 62
7
100
AcDbLine
 10
613.48875476721867
 20
572.98064321554671
 30
0
 11
635.70796896427862
 21
592.25174570006664
 31
0
  0
LINE
  5
E6
330
1F
100
AcDbEntity
  8
0
 62
7
100
AcDbLine
 10
635.70796896427862
 20
592.25174570006664
 30
0
 11
375.54808542322166
 21
892.211137360258
 31
0
  0
LINE
  5
E7
330
1F
100
AcDbEntity
  8
0
 62
7
100
AcDbLine
 10
375.54808542322166
 20
892.211137360258
 30
0
 11
373.25086097295775
 21
885.0494991663345
 31
0
  0
LINE
  5
E8
330
1F
100
AcDbEntity
  8
0
 62
7
100
AcDbLine
 10
373.25086097295775
 20
885.0494991663345
 30
0
 11
200.57830810003739
 21
845.35748454998259
 31
0
  0
CIRCLE
  5
E9
330
1F
100
AcDbEntity
  8
0
 62
7
100
AcDbCircle
 10
185.98239520639277
 20
738.07218292961443
 30
0
 40
2.1009682680026716
  0
LINE
  5
EA
330
1F
100
AcDbEntity
  8
0
 62
7
100
AcDbLine
 10
136.39019256747486
 20
405.22760662181707
 30
0
 11
131.52999992992389
 21
406.40233634299364
 31
0
  0
LINE
  5
EB
330
1F
100
AcDbEntity
  8
0
 62
7
100
AcDbLine
 10
131.52999992992389
 20
406.40233634299364
 30
0
 11
117.70991085718418
 21
349.2250400753619
 31
0
  0
LINE
  5
EC
330
1F
100
AcDbEntity
  8
0
 62
7
100
AcDbLine
 10
117.70991085718418
 20
349.2250400753619
 30
0
 11
122.56970537680581
 21
348.05021883933614
 31
0
  0
LINE
  5
ED
330
1F
100
AcDbEntity
  8
0
 62
7
100
AcDbLine
 10
122.56970537680581
 20
348.05021883933614
 30
0
 11
127.42993462029651
 21
346.87532987098734
 31
0
  0
LINE
  5
EE
330
1F
100
AcDbEntity
  8
0
 62
7
100
AcDbLine
 10
127.42993462029651
 20
346.87532987098734
 30
0
 11
141.25002369303644
 21
404.05262613861981
 31
0
  0
LINE
  5
EF
330
1F
100
AcDbEntity
  8
0
 62
7
100
AcDbLine
 10
141.25002369303644
 20
404.05262613861981
 30
0
 11
136.39019256747486
 21
405.22760662181707
 31
0
  0
LINE
  5
F0
330
1F
100
AcDbEntity
  8
0
 62
7
100
AcDbLine
 10
231.43595615475064
 20
798.45007572334566
 30
0
 11
226.5757635171997
 21
799.62480544452217
 31
0
  0
LINE
  5
F1
330
1F
100
AcDbEntity
  8
0
 62
7
100
AcDbLine
 10
226.5757635171997
 20
799.62480544452217
 30
0
 11
212.7556744444598
 21
742.44750917689032
 31
0
  0
LINE
  5
F2
330
1F
100
AcDbEntity
  8
0
 62
7
100
AcDbLine
 10
212.7556744444598
 20
742.44750917689032
 30
0
 11
217.61546896408143
 21
741.27268794086456
 31
0
  0
LINE
  5
F3
330
1F
100
AcDbEntity
  8
0
 62
7
100
AcDbLine
 10
217.61546896408143
 20
741.27268794086456
 30
0
 11
222.47569820757184
 21
740.0977989725161
 31
0
  0
LINE
  5
F4
330
1F
100
AcDbEntity
  8
0
 62
7
100
AcDbLine
 10
222.47569820757184
 20
740.0977989725161
 30
0
 11
236.29578728031174
 21
797.275095240148
 31
0
  0
LINE
  5
F5
330
1F
100
AcDbEntity
  8
0
 62
7
100
AcDbLine
 10
236.29578728031174
 20
797.275095240148
 30
0
 11
231.43595615475064
 21
798.45007572334566
 31
0
  0
LINE
  5
F6
330
1F
100
AcDbEntity
  8
0
 62
7
100
AcDbLine
 10
564.08248770172463
 20
439.7129994232742
 30
0
 11
560.80643240796712
 21
443.49022879309587
 31
0
  0
LINE
  5
F7
330
1F
100
AcDbEntity
  8
0
 62
7
100
AcDbLine
 10
560.80643240796712
 20
443.49022879309587
 30
0
 11
560.73088782057062
 21
443.42470768722069
 31
0
  0
LINE
  5
F8
330
1F
100
AcDbEntity
  8
0
 62
7
100
AcDbLine
 10
560.73088782057062
 20
443.42470768722069
 30
0
 11
564.00694311432812
 21
439.647478317399
 31
0
  0
LINE
  5
F9
330
1F
100
AcDbEntity
  8
0
 62
7
100
AcDbLine
 10
564.00694311432812
 20
439.647478317399
 30
0
 11
564.08248770172463
 21
439.7129994232742
 31
0
  0
LINE
  5
FA
330
1F
100
AcDbEntity
  8
0
 62
7
100
AcDbLine
 10
163.32784601211358
 20
675.70508457419783
 30
0
 11
181.67312018428464
 21
679.92208883149067
 31
0
  0
ARC
  5
FB
330
1F
100
AcDbEntity
  8
0
 62
7
100
AcDbCircle
 10
181.25027743406059
 20
681.76225401030956
 30
0
 40
1.8881217854668879
100
AcDbArc
 50
282.94107595490675
 51
294.56257558176981
  0
ARC
  5
FC
330
1F
100
AcDbEntity
  8
0
 62
7
100
AcDbCircle
 10
181.22154219984344
 20
681.821825631559
 30
0
 40
1.9542479801940058
100
AcDbArc
 50
294.60279432027909
 51
305.70944216122024
  0
ARC
  5
FD
330
1F
100
AcDbEntity
  8
0
 62
7
100
AcDbCircle
 10
181.12426715761558
 20
681.95589646553731
 30
0
 40
2.1198889412972814
100
AcDbArc
 50
305.72923471294342
 51
316.06346425267247
  0
ARC
  5
FE
330
1F
100
AcDbEntity
  8
0
 62
7
100
AcDbCircle
 10
180.95467680145157
 20
682.11915331197531
 30
0
 40
2.3552900373588517
100
AcDbArc
 50
316.06612723797127
 51
325.5803750668955
  0
ARC
  5
FF
330
1F
100
AcDbEntity
  8
0
 62
7
100
AcDbCircle
 10
180.73046958419587
 20
682.2731909125572
 30
0
 40
2.6273127527076592
100
AcDbArc
 50
325.57305528047908
 51
334.36188721345013
  0
ARC
  5
100
330
1F
100
AcDbEntity
  8
0
 62
7
100
AcDbCircle
 10
180.48289071521236
 20
682.39264577152221
 30
0
 40
2.9022026678481678
100
AcDbArc
 50
334.35063177915947
 51
342.57485673084381
  0
ARC
  5
101
330
1F
100
AcDbEntity
  8
0
 62
7
100
AcDbCircle
 10
180.24519460149915
 20
682.467911821412
 30
0
 40
3.1515298691713989
100
AcDbArc
 50
342.563373082927
 51
350.39730192388538
  0
ARC
  5
102
330
1F
100
AcDbEntity
  8
0
 62
7
100
AcDbCircle
 10
180.04145215936407
 20
682.50296244770368
 30
0
 40
3.3582645346333679
100
AcDbArc
 50
350.3875400295662
 51
357.98991355042716
  0
ARC
  5
103
330
1F
100
AcDbEntity
  8
0
 62
7
100
AcDbCircle
 10
179.87976463108544
 20
682.50906926430241
 30
0
 40
3.5200667970699859
100
AcDbArc
 50
357.98288519767777
 51
5.4822997049292939
  0
ARC
  5
104
330
1F
100
AcDbEntity
  8
0
 62
7
100
AcDbCircle
 10
179.75168881735581
 20
682.49701388563562
 30
0
 40
3.6487085186414054
100
AcDbArc
 50
5.4785953039015123
 51
12.965654795172384
  0
ARC
  5
105
330
1F
100
AcDbEntity
  8
0
 62
7
100
AcDbCircle
 10
179.75111714284063
 20
682.49950084652789
 30
0
 40
3.64870851869709
100
AcDbArc
 50
12.925583485386664
 51
20.412642976554572
  0
ARC
  5
106
330
1F
100
AcDbEntity
  8
0
 62
7
100
AcDbCircle
 10
179.87160144223463
 20
682.54458165672543
 30
0
 40
3.5200667985588217
100
AcDbArc
 50
20.408938577150423
 51
27.908353081228515
  0
ARC
  5
107
330
1F
100
AcDbEntity
  8
0
 62
7
100
AcDbCircle
 10
180.01439288844531
 20
682.62067865891186
 30
0
 40
3.3582645335175534
100
AcDbArc
 50
27.901324728747589
 51
35.503698252145846
  0
ARC
  5
108
330
1F
100
AcDbEntity
  8
0
 62
7
100
AcDbCircle
 10
180.18237923984873
 20
682.74117809859706
 30
0
 40
3.1515298678342032
100
AcDbArc
 50
35.493936354888234
 51
43.327865199182028
  0
ARC
  5
109
330
1F
100
AcDbEntity
  8
0
 62
7
100
AcDbCircle
 10
180.36335050892151
 20
682.91268267200337
 30
0
 40
2.9022026701431471
100
AcDbArc
 50
43.316381552853457
 51
51.540606498022214
  0
ARC
  5
10A
330
1F
100
AcDbEntity
  8
0
 62
7
100
AcDbCircle
 10
180.53391687978157
 20
683.1282560336698
 30
0
 40
2.6273127523994977
100
AcDbArc
 50
51.529351066466852
 51
60.31818300047248
  0
ARC
  5
10B
330
1F
100
AcDbEntity
  8
0
 62
7
100
AcDbCircle
 10
180.66835649068878
 20
683.36473531271247
 30
0
 40
2.3552900375380927
100
AcDbArc
 50
60.310863213921643
 51
69.825111042120355
  0
ARC
  5
10C
330
1F
100
AcDbEntity
  8
0
 62
7
100
AcDbCircle
 10
180.74963571706533
 20
683.58565922261585
 30
0
 40
2.1198889419125737
100
AcDbArc
 50
69.8277740293352
 51
80.162003566053954
  0
ARC
  5
10D
330
1F
100
AcDbEntity
  8
0
 62
7
100
AcDbCircle
 10
180.77860279803284
 20
683.74874916587635
 30
0
 40
1.9542479838043163
100
AcDbArc
 50
80.18179612958221
 51
91.288443949953518
  0
ARC
  5
10E
330
1F
100
AcDbEntity
  8
0
 62
7
100
AcDbCircle
 10
180.77844092525436
 20
683.81488891172364
 30
0
 40
1.888121785759878
100
AcDbArc
 50
91.328662699624047
 51
102.95016232465123
  0
LINE
  5
10F
330
1F
100
AcDbEntity
  8
0
 62
7
100
AcDbLine
 10
180.35530635388074
 20
685.65498701029594
 30
0
 11
162.0100321817074
 21
681.43798275300242
 31
0
  0
ARC
  5
110
330
1F
100
AcDbEntity
  8
0
 62
7
100
AcDbCircle
 10
162.43287493166983
 20
679.59781757495318
 30
0
 40
1.8881217846582077
100
AcDbArc
 50
102.94107595239983
 51
114.56257558427026
  0
ARC
  5
111
330
1F
100
AcDbEntity
  8
0
 62
7
100
AcDbCircle
 10
162.46161016694603
 20
679.5382459515597
 30
0
 40
1.9542479817757161
100
AcDbArc
 50
114.60279432477255
 51
125.70944215670677
  0
ARC
  5
112
330
1F
100
AcDbEntity
  8
0
 62
7
100
AcDbCircle
 10
162.55888520805556
 20
679.40417511932537
 30
0
 40
2.119888940810212
100
AcDbArc
 50
125.72923471175557
 51
136.06346425386164
  0
ARC
  5
113
330
1F
100
AcDbEntity
  8
0
 62
7
100
AcDbCircle
 10
162.72847556345315
 20
679.240918273406
 30
0
 40
2.3552900359598796
100
AcDbArc
 50
136.06612723519197
 51
145.58037506977681
  0
ARC
  5
114
330
1F
100
AcDbEntity
  8
0
 62
7
100
AcDbCircle
 10
162.95268278416685
 20
679.08688067056755
 30
0
 40
2.6273127554368259
100
AcDbArc
 50
145.57305528510105
 51
154.36188720892068
  0
ARC
  5
115
330
1F
100
AcDbEntity
  8
0
 62
7
100
AcDbCircle
 10
163.20026165331259
 20
678.96742581197361
 30
0
 40
2.9022026705630184
100
AcDbArc
 50
154.3506317830599
 51
162.57485672703535
  0
ARC
  5
116
330
1F
100
AcDbEntity
  8
0
 62
7
100
AcDbCircle
 10
163.43795776334429
 20
678.89215976335777
 30
0
 40
3.15152986799214
100
AcDbArc
 50
162.56337308147079
 51
170.39730192536459
  0
ARC
  5
117
330
1F
100
AcDbEntity
  8
0
 62
7
100
AcDbCircle
 10
163.641700206357
 20
678.85710913681839
 30
0
 40
3.358264534360822
100
AcDbArc
 50
170.3875400292842
 51
177.98991355076271
  0
ARC
  5
118
330
1F
100
AcDbEntity
  8
0
 62
7
100
AcDbCircle
 10
163.80338773351721
 20
678.85100232014611
 30
0
 40
3.5200667956822818
100
AcDbArc
 50
177.98288519616011
 51
185.48229970637215
  0
ARC
  5
119
330
1F
100
AcDbEntity
  8
0
 62
7
100
AcDbCircle
 10
163.93146354829895
 20
678.86305769879732
 30
0
 40
3.6487085182995544
100
AcDbArc
 50
185.47859530347128
 51
192.96565479544307
  0
ARC
  5
11A
330
1F
100
AcDbEntity
  8
0
 62
7
100
AcDbCircle
 10
163.93203522377317
 20
678.86057073815164
 30
0
 40
3.6487085193451083
100
AcDbArc
 50
192.92558348605897
 51
200.41264297588998
  0
ARC
  5
11B
330
1F
100
AcDbEntity
  8
0
 62
7
100
AcDbCircle
 10
163.81155092362243
 20
678.81548992770627
 30
0
 40
3.5200667984111673
100
AcDbArc
 50
200.40893857697665
 51
207.90835308136889
  0
ARC
  5
11C
330
1F
100
AcDbEntity
  8
0
 62
7
100
AcDbCircle
 10
163.66875947885595
 20
678.73939292639147
 30
0
 40
3.3582645350540612
100
AcDbArc
 50
207.90132473050676
 51
215.50369825041585
  0
ARC
  5
11D
330
1F
100
AcDbEntity
  8
0
 62
7
100
AcDbCircle
 10
163.50077312654346
 20
678.618893486226
 30
0
 40
3.1515298683518003
100
AcDbArc
 50
215.49393635553736
 51
223.32786519854326
  0
ARC
  5
11E
330
1F
100
AcDbEntity
  8
0
 62
7
100
AcDbCircle
 10
163.31980185536858
 20
678.44738891063946
 30
0
 40
2.9022026676355268
100
AcDbArc
 50
223.31638154931443
 51
231.5406065016011
  0
ARC
  5
11F
330
1F
100
AcDbEntity
  8
0
 62
7
100
AcDbCircle
 10
163.14923548596175
 20
678.23181555045767
 30
0
 40
2.6273127519582986
100
AcDbArc
 50
231.52935106573912
 51
240.3181830012266
  0
ARC
  5
120
330
1F
100
AcDbEntity
  8
0
 62
7
100
AcDbCircle
 10
163.01479587535601
 20
677.995336271897
 30
0
 40
2.3552900376649197
100
AcDbArc
 50
240.31086321419843
 51
249.82511104188421
  0
ARC
  5
121
330
1F
100
AcDbEntity
  8
0
 62
7
100
AcDbCircle
 10
162.93351664791413
 20
677.77441235809749
 30
0
 40
2.1198889380148964
100
AcDbArc
 50
249.82777401978649
 51
260.162003575572
  0
ARC
  5
122
330
1F
100
AcDbEntity
  8
0
 62
7
100
AcDbCircle
 10
162.90454956763207
 20
677.61132241421728
 30
0
 40
1.954247979413098
100
AcDbArc
 50
260.18179611704625
 51
271.28844396246024
  0
ARC
  5
123
330
1F
100
AcDbEntity
  8
0
 62
7
100
AcDbCircle
 10
162.90471144089815
 20
677.54518267149524
 30
0
 40
1.8881217844819775
100
AcDbArc
 50
271.3286626956708
 51
282.9501623286427
  0
LINE
  5
124
330
1F
100
AcDbEntity
  8
0
 62
1
100
AcDbLine
 10
174.41029674541218
 20
265.16049393239939
 30
0
 11
373.25086097295775
 21
885.0494991663345
 31
0
  0
LINE
  5
125
330
1F
100
AcDbEntity
  8
0
 62
1
100
AcDbLine
 10
399.63687094880731
 20
864.4370393176863
 30
0
 11
188.8635310287452
 21
248.4960029883506
 31
0
  0
LINE
  5
126
330
1F
100
AcDbEntity
  8
0
 62
1
100
AcDbLine
 10
425.20381584960353
 20
834.95883870247815
 30
0
 11
204.47909272989475
 21
230.49155770434197
 31
0
  0
LINE
  5
127
330
1F
100
AcDbEntity
  8
0
 62
1
100
AcDbLine
 10
452.63240278124476
 20
803.33420027579541
 30
0
 11
222.58796037666
 21
209.61237814351091
 31
0
  0
LINE
  5
128
330
1F
100
AcDbEntity
  8
0
 62
1
100
AcDbLine
 10
481.53905650802881
 20
770.00537898021878
 30
0
 11
241.85906286118271
 21
187.39316394645971
 31
0
  0
LINE
  5
129
330
1F
100
AcDbEntity
  8
0
 62
1
100
AcDbLine
 10
296.049395241052
 20
127.96525650355181
 30
0
 11
555.1560870523025
 21
491.2048030502803
 31
0
  0
ARC
  5
12A
330
1F
100
AcDbEntity
  8
0
 62
7
100
AcDbCircle
 10
186.22074636233845
 20
143.51996043162711
 30
0
 40
24.663652764962347
100
AcDbArc
 50
0.0026940098238628068
 51
2.6901366477123734
  0
ARC
  5
12B
330
1F
100
AcDbEntity
  8
0
 62
7
100
AcDbCircle
 10
185.83354623091714
 20
143.50136913328549
 30
0
 40
25.051298766328856
100
AcDbArc
 50
2.6910463986231021
 51
5.341323612201978
  0
ARC
  5
12C
330
1F
100
AcDbEntity
  8
0
 62
7
100
AcDbCircle
 10
185.30124356516626
 20
143.45123356454903
 30
0
 40
25.585957135478679
100
AcDbArc
 50
5.3421443341586405
 51
7.9462628014916268
  0
ARC
  5
12D
330
1F
100
AcDbEntity
  8
0
 62
7
100
AcDbCircle
 10
184.62564788989511
 20
143.35659792816512
 30
0
 40
26.268148687921016
100
AcDbArc
 50
7.9469819941437487
 51
10.496998598661966
  0
ARC
  5
12E
330
1F
100
AcDbEntity
  8
0
 62
7
100
AcDbCircle
 10
183.80881092622354
 20
143.204956862644
 30
0
 40
27.098942017949462
100
AcDbArc
 50
10.4976088523543
 51
12.98673190063155
  0
ARC
  5
12F
330
1F
100
AcDbEntity
  8
0
 62
7
100
AcDbCircle
 10
182.85302834826956
 20
142.98427932945575
 30
0
 40
28.079869564871913
100
AcDbArc
 50
12.987230668120937
 51
15.409867572380659
  0
ARC
  5
130
330
1F
100
AcDbEntity
  8
0
 62
7
100
AcDbCircle
 10
181.76084128798229
 20
142.68303276125962
 30
0
 40
29.212840010951727
100
AcDbArc
 50
15.410256609637942
 51
17.7620125653171
  0
ARC
  5
131
330
1F
100
AcDbEntity
  8
0
 62
7
100
AcDbCircle
 10
180.53503681338168
 20
142.29020722253136
 30
0
 40
30.500049586679545
100
AcDbArc
 50
17.76229715834921
 51
20.039932148766308
  0
ARC
  5
132
330
1F
100
AcDbEntity
  8
0
 62
7
100
AcDbCircle
 10
179.17864821007191
 20
141.79533968607919
 30
0
 40
31.943893037793032
100
AcDbArc
 50
20.040120238295017
 51
22.241473403181402
  0
ARC
  5
133
330
1F
100
AcDbEntity
  8
0
 62
7
100
AcDbCircle
 10
177.69495386018792
 20
141.18853795528705
 30
0
 40
33.546876899539505
100
AcDbArc
 50
22.241574712831365
 51
24.365465488578312
  0
ARC
  5
134
330
1F
100
AcDbEntity
  8
0
 62
7
100
AcDbCircle
 10
176.08747594480474
 20
140.46050449761594
 30
0
 40
35.311534929783107
100
AcDbArc
 50
24.365490733146757
 51
26.411605814084105
  0
ARC
  5
135
330
1F
100
AcDbEntity
  8
0
 62
7
100
AcDbCircle
 10
174.35997815310969
 20
139.60255983508384
 30
0
 40
37.240347430687258
100
AcDbArc
 50
26.411566018343642
 51
28.380340017168926
  0
ARC
  5
136
330
1F
100
AcDbEntity
  8
0
 62
7
100
AcDbCircle
 10
172.51646214085267
 20
138.60666517186124
 30
0
 40
39.335665416993358
100
AcDbArc
 50
28.380245984977023
 51
30.272742207946212
  0
ARC
  5
137
330
1F
100
AcDbEntity
  8
0
 62
7
100
AcDbCircle
 10
170.56116358313324
 20
137.46544452301276
 30
0
 40
41.599639138058933
100
AcDbArc
 50
30.272604137793763
 51
32.090400382537673
  0
ARC
  5
138
330
1F
100
AcDbEntity
  8
0
 62
7
100
AcDbCircle
 10
168.49854697008229
 20
136.17220580840637
 30
0
 40
44.034152158918289
100
AcDbArc
 50
32.090227609400912
 51
33.835310347189491
  0
ARC
  5
139
330
1F
100
AcDbEntity
  8
0
 62
7
100
AcDbCircle
 10
166.33329953967572
 20
134.7209609459602
 30
0
 40
46.64076069509057
100
AcDbArc
 50
33.835111196525069
 51
35.509780220519296
  0
ARC
  5
13A
330
1F
100
AcDbEntity
  8
0
 62
7
100
AcDbCircle
 10
164.07032397410262
 20
133.10644455421286
 30
0
 40
49.420638670137478
100
AcDbArc
 50
35.509561952810905
 51
37.116346487996069
  0
ARC
  5
13B
330
1F
100
AcDbEntity
  8
0
 62
7
100
AcDbCircle
 10
161.71473043076369
 20
131.32413148387121
 30
0
 40
52.374527764194852
100
AcDbArc
 50
37.116115306496489
 51
38.657701786006591
  0
ARC
  5
13C
330
1F
100
AcDbEntity
  8
0
 62
7
100
AcDbCircle
 10
159.27182694271255
 20
129.37025233351119
 30
0
 40
55.502693542347913
100
AcDbArc
 50
38.657462891439046
 51
40.136633977841129
  0
ARC
  5
13D
330
1F
100
AcDbEntity
  8
0
 62
7
100
AcDbCircle
 10
156.74710933567204
 20
127.24180759906534
 30
0
 40
58.804886135839119
100
AcDbArc
 50
40.136391651848051
 51
41.555975745162328
  0
ARC
  5
13E
330
1F
100
AcDbEntity
  8
0
 62
7
100
AcDbCircle
 10
154.14624975751855
 20
124.93657963817907
 30
0
 40
62.280306460264171
100
AcDbArc
 50
41.555733444509194
 51
42.918563656456911
  0
ARC
  5
13F
330
1F
100
AcDbEntity
  8
0
 62
7
100
AcDbCircle
 10
151.47508387558455
 20
122.45314222906559
 30
0
 40
65.927577832403287
100
AcDbArc
 50
42.918324117438395
 51
44.227205596699584
  0
ARC
  5
140
330
1F
100
AcDbEntity
  8
0
 62
7
100
AcDbCircle
 10
148.73959755520977
 20
119.79086827108799
 30
0
 40
69.74472178556455
100
AcDbArc
 50
44.226970937456571
 51
45.484655440144181
  0
ARC
  5
141
330
1F
100
AcDbEntity
  8
0
 62
7
100
AcDbCircle
 10
145.94591209648064
 20
116.94993464764411
 30
0
 40
73.729139210178559
100
AcDbArc
 50
45.484427254356888
 51
46.693593868343171
  0
ARC
  5
142
330
1F
100
AcDbEntity
  8
0
 62
7
100
AcDbCircle
 10
143.10026839047472
 20
113.93132433402565
 30
0
 40
77.877596301909449
100
AcDbArc
 50
46.693373313428509
 51
47.856614339200746
  0
ARC
  5
143
330
1F
100
AcDbEntity
  8
0
 62
7
100
AcDbCircle
 10
140.20901048912899
 20
110.73682609558574
 30
0
 40
82.186214544427514
100
AcDbArc
 50
47.856402213938885
 51
48.976213314799452
  0
ARC
  5
144
330
1F
100
AcDbEntity
  8
0
 62
7
100
AcDbCircle
 10
137.27856766039349
 20
107.36903062202144
 30
0
 40
86.65046604212408
100
AcDbArc
 50
48.9760101269312
 51
50.054783946568911
  0
ARC
  5
145
330
1F
100
AcDbEntity
  8
0
 62
7
100
AcDbCircle
 10
134.31543625256072
 20
103.83132433584322
 30
0
 40
91.265172253434685
100
AcDbArc
 50
50.054589970712442
 51
51.094612551879493
  0
ARC
  5
146
330
1F
100
AcDbEntity
  8
0
 62
7
100
AcDbCircle
 10
131.32615999404229
 20
100.12787916995062
 30
0
 40
96.02450818983074
100
AcDbArc
 50
51.094427878133054
 51
52.097877287249851
  0
ARC
  5
147
330
1F
100
AcDbEntity
  8
0
 62
7
100
AcDbCircle
 10
128.31731011052665
 20
96.263639697440667
 30
0
 40
100.92201002562332
100
AcDbArc
 50
52.097701863641767
 51
53.066648545712546
  0
ARC
  5
148
330
1F
100
AcDbEntity
  8
0
 62
7
100
AcDbCircle
 10
125.29546469503293
 20
92.244306843122629
 30
0
 40
105.95058698325489
100
AcDbArc
 50
53.0664822112907
 51
54.002890668005705
  0
ARC
  5
149
330
1F
100
AcDbEntity
  8
0
 62
7
100
AcDbCircle
 10
122.26718734987264
 20
88.0763179988537
 30
0
 40
111.10253754553959
100
AcDbArc
 50
54.002733179859028
 51
54.90846463574448
  0
ARC
  5
14A
330
1F
100
AcDbEntity
  8
0
 62
7
100
AcDbCircle
 10
119.23900531258738
 20
83.766823623100109
 30
0
 40
116.36956974007002
100
AcDbArc
 50
54.908315693034375
 51
55.785131478914288
  0
ARC
  5
14B
330
1F
100
AcDbEntity
  8
0
 62
7
100
AcDbCircle
 10
116.21738778725889
 20
79.3236612198823
 30
0
 40
121.74282429622697
100
AcDbArc
 50
55.784990741062344
 51
56.634556184480267
  0
ARC
  5
14C
330
1F
100
AcDbEntity
  8
0
 62
7
100
AcDbCircle
 10
113.2087235254665
 20
74.755325254804546
 30
0
 40
127.21290236209438
100
AcDbArc
 50
56.634423284292275
 51
57.458311925168985
  0
ARC
  5
14D
330
1F
100
AcDbEntity
  8
0
 62
7
100
AcDbCircle
 10
110.21929846844702
 20
70.070933982331809
 30
0
 40
132.76989648519648
100
AcDbArc
 50
57.458186480722624
 51
58.257884477577925
  0
ARC
  5
14E
330
1F
100
AcDbEntity
  8
0
 62
7
100
AcDbCircle
 10
107.25527361088956
 20
65.280193371774217
 30
0
 40
138.40342458714343
100
AcDbArc
 50
58.257766101375928
 51
59.0346767231497
  0
ARC
  5
14F
330
1F
100
AcDbEntity
  8
0
 62
7
100
AcDbCircle
 10
104.32266289374522
 20
60.393357761281024
 30
0
 40
144.1026673286398
100
AcDbArc
 50
59.034565028354038
 51
59.790013147547036
  0
ARC
  5
150
330
1F
100
AcDbEntity
  8
0
 62
7
100
AcDbCircle
 10
101.42731147543317
 20
55.421187696977313
 30
0
 40
149.85640827786671
100
AcDbArc
 50
59.789907753691686
 51
60.525144279212341
  0
ARC
  5
151
330
1F
100
AcDbEntity
  8
0
 62
7
100
AcDbCircle
 10
98.574874616494228
 20
50.374905329420471
 30
0
 40
155.65307643268244
100
AcDbArc
 50
60.525044815410936
 51
61.241251020394166
  0
ARC
  5
152
330
1F
100
AcDbEntity
  8
0
 62
7
100
AcDbCircle
 10
95.7707968876978
 20
45.266146824529017
 30
0
 40
161.48079170566336
100
AcDbArc
 50
61.241157128382454
 51
61.939448836832135
  0
ARC
  5
153
330
1F
100
AcDbEntity
  8
0
 62
7
100
AcDbCircle
 10
93.020292598870085
 20
40.106913359621757
 30
0
 40
167.3274115602095
100
AcDbArc
 50
61.939360172524864
 51
62.620791786306327
  0
ARC
  5
154
330
1F
100
AcDbEntity
  8
0
 62
7
100
AcDbCircle
 10
90.32832659014332
 20
34.909519186836235
 30
0
 40
173.18058054098461
100
AcDbArc
 50
62.620708020870012
 51
63.28627636711289
  0
ARC
  5
155
330
1F
100
AcDbEntity
  8
0
 62
7
100
AcDbCircle
 10
87.699596484220464
 20
29.686538786431214
 30
0
 40
179.0277803984882
100
AcDbArc
 50
63.286197188120774
 51
63.9368451824955
  0
ARC
  5
156
330
1F
100
AcDbEntity
  8
0
 62
7
100
AcDbCircle
 10
85.138515990415428
 20
24.450752466742841
 30
0
 40
184.85638157069468
100
AcDbArc
 50
63.936770293892508
 51
64.573390414920837
  0
ARC
  5
157
330
1F
100
AcDbEntity
  8
0
 62
7
100
AcDbCircle
 10
82.649199435986617
 20
19.215090807648693
 30
0
 40
190.65369559209532
100
AcDbArc
 50
64.573319536674418
 51
65.196757110628724
  0
ARC
  5
158
330
1F
100
AcDbEntity
  8
0
 62
7
100
AcDbCircle
 10
80.2354476368421
 20
13.992578259363682
 30
0
 40
196.40702810581828
100
AcDbArc
 50
65.196689978764226
 51
65.80774627758386
  0
ARC
  5
159
330
1F
100
AcDbEntity
  8
0
 62
7
100
AcDbCircle
 10
77.900735454395161
 20
8.7962767722107174
 30
0
 40
202.10373154476366
100
AcDbArc
 50
65.807682643899739
 51
66.407117802450358
  0
ARC
  5
15A
330
1F
100
AcDbEntity
  8
0
 62
7
100
AcDbCircle
 10
75.648200861079815
 20
3.6392292703937983
 30
0
 40
207.73125773159484
100
AcDbArc
 50
66.407057433698611
 51
66.995593191993152
  0
ARC
  5
15B
330
1F
100
AcDbEntity
  8
0
 62
7
100
AcDbCircle
 10
73.480635592388779
 20
-1.4655967054716825
 30
0
 40
213.27721007484121
100
AcDbArc
 50
66.995535869092024
 51
67.57385814620919
  0
ARC
  5
15C
330
1F
100
AcDbEntity
  8
0
 62
7
100
AcDbCircle
 10
71.400477526652679
 20
-6.5053646810633836
 30
0
 40
218.72939484647782
100
AcDbArc
 50
67.573803664034912
 51
68.142564971707756
  0
ARC
  5
15D
330
1F
100
AcDbEntity
  8
0
 62
7
100
AcDbCircle
 10
69.409805079647583
 20
-11.467423302343462
 30
0
 40
224.07587055596841
100
AcDbArc
 50
68.142513138007743
 51
68.702334843820637
  0
ARC
  5
15E
330
1F
100
AcDbEntity
  8
0
 62
7
100
AcDbCircle
 10
67.510333108230768
 20
-16.339359714864287
 30
0
 40
229.30499650011069
100
AcDbArc
 50
68.702285478376481
 51
69.25375992483059
  0
ARC
  5
15F
330
1F
100
AcDbEntity
  8
0
 62
7
100
AcDbCircle
 10
65.70341066487849
 20
-21.1090512202108
 30
0
 40
234.4054793925626
100
AcDbArc
 50
69.253712859078831
 51
69.797405347144988
  0
ARC
  5
160
330
1F
100
AcDbEntity
  8
0
 62
7
100
AcDbCircle
 10
63.990020916908023
 20
-25.764714040411519
 30
0
 40
239.36641687345832
100
AcDbArc
 50
69.797360423355386
 51
70.333811070968437
  0
ARC
  5
161
330
1F
100
AcDbEntity
  8
0
 62
7
100
AcDbCircle
 10
62.3707824777408
 20
-30.29495082051838
 30
0
 40
244.17733969282446
100
AcDbArc
 50
70.333768141457369
 51
70.863493622197353
  0
ARC
  5
162
330
1F
100
AcDbEntity
  8
0
 62
7
100
AcDbCircle
 10
60.845952749511781
 20
-34.688794991841633
 30
0
 40
248.82825060045732
100
AcDbArc
 50
70.863452548712345
 51
71.386947719865191
  0
ARC
  5
163
330
1F
100
AcDbEntity
  8
0
 62
7
100
AcDbCircle
 10
59.415432983046784
 20
-38.935752395651008
 30
0
 40
253.30966041906274
100
AcDbArc
 50
71.386908373057778
 51
71.904647800179831
  0
ARC
  5
164
330
1F
100
AcDbEntity
  8
0
 62
7
100
AcDbCircle
 10
58.078775053961905
 20
-43.025839797681073
 30
0
 40
257.61262095191876
100
AcDbArc
 50
71.904610058855454
 51
72.417049443979792
  0
ARC
  5
165
330
1F
100
AcDbEntity
  8
0
 62
7
100
AcDbCircle
 10
56.835189747017225
 20
-46.949620541799419
 30
0
 40
261.72875502609253
100
AcDbArc
 50
72.417013194672322
 51
72.924590714003841
  0
ARC
  5
166
330
1F
100
AcDbEntity
  8
0
 62
7
100
AcDbCircle
 10
55.683556841604158
 20
-50.698236034630469
 30
0
 40
265.65028233521332
100
AcDbArc
 50
72.9245558504325
 51
73.427693409422972
  0
ARC
  5
167
330
1F
100
AcDbEntity
  8
0
 62
7
100
AcDbCircle
 10
54.622436380619604
 20
-54.263434549710013
 30
0
 40
269.37004268503006
100
AcDbArc
 50
73.42765983171725
 51
73.926764241618784
  0
ARC
  5
168
330
1F
100
AcDbEntity
  8
0
 62
7
100
AcDbCircle
 10
53.650081404088525
 20
-57.637596112586948
 30
0
 40
272.88151537170967
100
AcDbArc
 50
73.926731856181021
 51
74.422195938264863
  0
ARC
  5
169
330
1F
100
AcDbEntity
  8
0
 62
7
100
AcDbCircle
 10
52.764452093802305
 20
-60.81375312241687
 30
0
 40
276.17883437415179
100
AcDbArc
 50
74.4221646571745
 51
74.914368280842879
  0
ARC
  5
16A
330
1F
100
AcDbEntity
  8
0
 62
7
100
AcDbCircle
 10
51.96323069790553
 20
-63.785608479098784
 30
0
 40
279.25680122984892
100
AcDbArc
 50
74.914338021399928
 51
75.4036490786559
  0
ARC
  5
16B
330
1F
100
AcDbEntity
  8
0
 62
7
100
AcDbCircle
 10
51.243837814418868
 20
-66.547548789800629
 30
0
 40
282.11089309593655
100
AcDbArc
 50
75.403619763368312
 51
75.890395086404382
  0
ARC
  5
16C
330
1F
100
AcDbEntity
  8
0
 62
7
100
AcDbCircle
 10
50.603449483715835
 20
-69.094654081996453
 30
0
 40
284.73726751018808
100
AcDbArc
 50
75.890366642159677
 51
76.374952867765359
  0
ARC
  5
16D
330
1F
100
AcDbEntity
  8
0
 62
7
100
AcDbCircle
 10
50.03901474552309
 20
-71.422705047395368
 30
0
 40
287.132764922448
100
AcDbArc
 50
76.374925225649676
 51
76.85765960823359
  0
ARC
  5
16E
330
1F
100
AcDbEntity
  8
0
 62
7
100
AcDbCircle
 10
49.547274288389346
 20
-73.52818491210698
 30
0
 40
289.29490601857748
100
AcDbArc
 50
76.857632703487724
 51
77.3388438835172
  0
ARC
  5
16F
330
1F
100
AcDbEntity
  8
0
 62
7
100
AcDbCircle
 10
49.1247792828704
 20
-75.408279056461623
 30
0
 40
291.22188707807703
100
AcDbArc
 50
77.338817654791768
 51
77.818826383797287
  0
ARC
  5
170
330
1F
100
AcDbEntity
  8
0
 62
7
100
AcDbCircle
 10
48.767910595145338
 20
-77.060871339281391
 30
0
 40
292.91257229315124
100
AcDbArc
 50
77.818800773127677
 51
78.297920598321028
  0
ARC
  5
171
330
1F
100
AcDbEntity
  8
0
 62
7
100
AcDbCircle
 10
48.472898384566058
 20
-78.484536641635657
 30
0
 40
294.36648256584363
100
AcDbArc
 50
78.29789555115093
 51
78.776433463502983
  0
ARC
  5
172
330
1F
100
AcDbEntity
  8
0
 62
7
100
AcDbCircle
 10
48.23584183190161
 20
-79.6785302809314
 30
0
 40
295.58378146253432
100
AcDbArc
 50
78.776408928103578
 51
79.254665976643125
  0
ARC
  5
173
330
1F
100
AcDbEntity
  8
0
 62
7
100
AcDbCircle
 10
48.052728632636736
 20
-80.642775781904021
 30
0
 40
296.56525984457693
100
AcDbArc
 50
79.254641903951779
 51
79.732913776705033
  0
ARC
  5
174
330
1F
100
AcDbEntity
  8
0
 62
7
100
AcDbCircle
 10
47.919454672661978
 20
-81.377848611487963
 30
0
 40
297.31231673542868
100
AcDbArc
 50
79.732890120365653
 51
80.211467696451109
  0
ARC
  5
175
330
1F
100
AcDbEntity
  8
0
 62
7
100
AcDbCircle
 10
47.831843352855408
 20
-81.884958116776318
 30
0
 40
297.82693871230919
100
AcDbArc
 50
80.211444412243608
 51
80.690614286060267
  0
ARC
  5
176
330
1F
100
AcDbEntity
  8
0
 62
7
100
AcDbCircle
 10
47.785664499951352
 20
-82.165927907093078
 30
0
 40
298.11167805851261
100
AcDbArc
 50
80.690591332200853
 51
81.170636310452267
  0
ARC
  5
177
330
1F
100
AcDbEntity
  8
0
 62
7
100
AcDbCircle
 10
47.776653173594831
 20
-82.223172485645534
 30
0
 40
298.16962744909779
100
AcDbArc
 50
81.170613647280135
 51
81.651813223339929
  0
ARC
  5
178
330
1F
100
AcDbEntity
  8
0
 62
7
100
AcDbCircle
 10
47.800527666694151
 20
-82.0596739834707
 30
0
 40
298.00439507321295
100
AcDbArc
 50
81.65179081305449
 51
82.134421617083561
  0
ARC
  5
179
330
1F
100
AcDbEntity
  8
0
 62
7
100
AcDbCircle
 10
47.853007133648553
 20
-81.678956240085711
 30
0
 40
297.62007739046493
100
AcDbArc
 50
82.134399423772223
 51
82.618735651703929
  0
ARC
  5
17A
330
1F
100
AcDbEntity
  8
0
 62
7
100
AcDbCircle
 10
47.929828538580288
 20
-81.085057862625291
 30
0
 40
297.02123116816711
100
AcDbArc
 50
82.6187136412971
 51
83.105027463349856
  0
ARC
  5
17B
330
1F
100
AcDbEntity
  8
0
 62
7
100
AcDbCircle
 10
48.026762928073246
 20
-80.28250409613085
 30
0
 40
296.21284462005173
100
AcDbArc
 50
83.105005603475675
 51
83.593567553333827
  0
ARC
  5
17C
330
1F
100
AcDbEntity
  8
0
 62
7
100
AcDbCircle
 10
48.139630961371225
 20
-79.276277846362547
 30
0
 40
295.20030798067813
100
AcDbArc
 50
83.593545813206887
 51
84.084625158656848
  0
ARC
  5
17D
330
1F
100
AcDbEntity
  8
0
 62
7
100
AcDbCircle
 10
48.264317667459764
 20
-78.071789989421632
 30
0
 40
293.98938363960536
100
AcDbArc
 50
84.084603509050567
 51
84.578468604832977
  0
ARC
  5
17E
330
1F
100
AcDbEntity
  8
0
 62
7
100
AcDbCircle
 10
48.396786398627327
 20
-76.674849122323167
 30
0
 40
292.58617597903014
100
AcDbArc
 50
84.578447017989177
 51
85.075365641562257
  0
ARC
  5
17F
330
1F
100
AcDbEntity
  8
0
 62
7
100
AcDbCircle
 10
48.5330919301044
 20
-75.091631214071981
 30
0
 40
290.99710136439637
100
AcDbArc
 50
85.075344091258742
 51
85.57558376157013
  0
ARC
  5
180
330
1F
100
AcDbEntity
  8
0
 62
7
100
AcDbCircle
 10
48.66939276070908
 20
-73.328648527814664
 30
0
 40
289.22885764347637
100
AcDbArc
 50
85.575562223119647
 51
86.079390503721811
  0
ARC
  5
181
330
1F
100
AcDbEntity
  8
0
 62
7
100
AcDbCircle
 10
48.801962482093337
 20
-71.392719288657474
 30
0
 40
287.28839462185061
100
AcDbArc
 50
86.0793689537158
 51
86.587053739198353
  0
ARC
  5
182
330
1F
100
AcDbEntity
  8
0
 62
7
100
AcDbCircle
 10
48.927200322608741
 20
-69.290937109302945
 30
0
 40
285.18288450918834
100
AcDbArc
 50
86.5870321557531
 51
87.0988419422631
  0
ARC
  5
183
330
1F
100
AcDbEntity
  8
0
 62
7
100
AcDbCircle
 10
49.041640817447565
 20
-67.030640786159665
 30
0
 40
282.91969293891259
100
AcDbArc
 50
87.098820304954046
 51
87.615024444645229
  0
ARC
  5
184
330
1F
100
AcDbEntity
  8
0
 62
7
100
AcDbCircle
 10
49.141962619488289
 20
-64.619384550042753
 30
0
 40
280.5063506323213
100
AcDbArc
 50
87.615002734577971
 51
88.135871673764967
  0
ARC
  5
185
330
1F
100
AcDbEntity
  8
0
 62
7
100
AcDbCircle
 10
49.224996465083876
 20
-62.064908807349724
 30
0
 40
277.9505257306048
100
AcDbArc
 50
88.135849873514388
 51
88.661655374314066
  0
ARC
  5
186
330
1F
100
AcDbEntity
  8
0
 62
7
100
AcDbCircle
 10
49.287732298376369
 20
-59.375111962980952
 30
0
 40
275.25999737402293
100
AcDbArc
 50
88.6616334681221
 51
89.192648812296284
  0
ARC
  5
187
330
1F
100
AcDbEntity
  8
0
 62
7
100
AcDbCircle
 10
49.327325615327211
 20
-56.558021975659415
 30
0
 40
272.44262916657618
100
AcDbArc
 50
89.19262678588062
 51
89.72912696216936
  0
LINE
  5
188
330
1F
100
AcDbEntity
  8
0
 62
7
100
AcDbLine
 10
50.615327774014162
 20
215.88156258876433
 30
0
 11
49.33992267553694
 21
215.88457486754615
 31
0
  0
LINE
  5
189
330
1F
100
AcDbEntity
  8
0
 62
7
100
AcDbLine
 10
49.33992267553694
 20
215.88457486754615
 30
0
 11
17.328170827575008
 21
215.88457486760203
 31
0
  0
ARC
  5
18A
330
1F
100
AcDbEntity
  8
0
 62
7
100
AcDbCircle
 10
17.322707271948264
 20
200.3168946336996
 30
0
 40
15.567681192633534
100
AcDbArc
 50
89.979891759016652
 51
97.334635825713193
  0
ARC
  5
18B
330
1F
100
AcDbEntity
  8
0
 62
7
100
AcDbCircle
 10
17.248031331311097
 20
200.88789524386726
 30
0
 40
14.991819425437948
100
AcDbArc
 50
97.330169789310588
 51
104.70586519867756
  0
ARC
  5
18C
330
1F
100
AcDbEntity
  8
0
 62
7
100
AcDbCircle
 10
17.0585664601194
 20
201.60218784717395
 30
0
 40
14.25282893716666
100
AcDbArc
 50
104.69810591884603
 51
112.19246690974502
  0
ARC
  5
18D
330
1F
100
AcDbEntity
  8
0
 62
7
100
AcDbCircle
 10
16.699308337569374
 20
202.4763692801516
 30
0
 40
13.307708230175315
100
AcDbArc
 50
112.18192116609526
 51
119.93069157137373
  0
ARC
  5
18E
330
1F
100
AcDbEntity
  8
0
 62
7
100
AcDbCircle
 10
16.131987735330824
 20
203.4564639341786
 30
0
 40
12.175263706889544
100
AcDbArc
 50
119.91828394265526
 51
128.08850847509498
  0
ARC
  5
18F
330
1F
100
AcDbEntity
  8
0
 62
7
100
AcDbCircle
 10
15.366296915795193
 20
204.42957094548541
 30
0
 40
10.937033715763516
100
AcDbArc
 50
128.07616961421886
 51
136.85245852309137
  0
ARC
  5
190
330
1F
100
AcDbEntity
  8
0
 62
7
100
AcDbCircle
 10
14.478290692797687
 20
205.25998714085219
 30
0
 40
9.7212443277770717
100
AcDbArc
 50
136.84407984364964
 51
146.39900642995508
  0
ARC
  5
191
330
1F
100
AcDbEntity
  8
0
 62
7
100
AcDbCircle
 10
13.607280826165535
 20
205.83910561577554
 30
0
 40
8.6752824394053114
100
AcDbArc
 50
146.40120203215997
 51
156.8388540099246
  0
ARC
  5
192
330
1F
100
AcDbEntity
  8
0
 62
7
100
AcDbCircle
 10
12.932347842809151
 20
206.13098259150843
 30
0
 40
7.9399474249172783
100
AcDbArc
 50
156.85969934024868
 51
168.13160249156905
  0
ARC
  5
193
330
1F
100
AcDbEntity
  8
0
 62
7
100
AcDbCircle
 10
12.638747481319207
 20
206.19859384834592
 30
0
 40
7.6387204416453534
100
AcDbArc
 50
168.17497717594668
 51
180.00291390954871
  0
LINE
  5
194
330
1F
100
AcDbEntity
  8
0
 62
7
100
AcDbLine
 10
5.0000270495525
 20
206.19820536352881
 30
0
 11
5.00002704940664
 21
122.62916684715901
 31
0
  0
ARC
  5
195
330
1F
100
AcDbEntity
  8
0
 62
7
100
AcDbCircle
 10
12.639284179233645
 20
122.62877592040695
 30
0
 40
7.6392571398295317
100
AcDbArc
 50
179.99706798022481
 51
191.82500964156657
  0
ARC
  5
196
330
1F
100
AcDbEntity
  8
0
 62
7
100
AcDbCircle
 10
12.932802203646522
 20
122.69637113052099
 30
0
 40
7.940400244454433
100
AcDbArc
 50
191.86839077040432
 51
203.14032348583191
  0
ARC
  5
197
330
1F
100
AcDbEntity
  8
0
 62
7
100
AcDbCircle
 10
13.60772370496216
 20
122.98824434134549
 30
0
 40
8.6757232226411549
100
AcDbArc
 50
203.16117275846153
 51
213.59881551749166
  0
ARC
  5
198
330
1F
100
AcDbEntity
  8
0
 62
7
100
AcDbCircle
 10
14.478756007196559
 20
123.56737823923311
 30
0
 40
9.72171233314972
100
AcDbArc
 50
213.60101166599176
 51
223.15586622763638
  0
ARC
  5
199
330
1F
100
AcDbEntity
  8
0
 62
7
100
AcDbCircle
 10
15.366778260279307
 20
124.39780730493895
 30
0
 40
10.937522219701085
100
AcDbArc
 50
223.14748566387459
 51
231.92365142729204
  0
ARC
  5
19A
330
1F
100
AcDbEntity
  8
0
 62
7
100
AcDbCircle
 10
16.132443822825582
 20
125.37087453950538
 30
0
 40
12.175705331067064
100
AcDbArc
 50
231.91130933779846
 51
240.08139383577787
  0
ARC
  5
19B
330
1F
100
AcDbEntity
  8
0
 62
7
100
AcDbCircle
 10
16.699681249059136
 20
126.35080993303174
 30
0
 40
13.307970348492722
100
AcDbArc
 50
240.06898225789772
 51
247.81764270976251
  0
ARC
  5
19C
330
1F
100
AcDbEntity
  8
0
 62
7
100
AcDbCircle
 10
17.058809344026237
 20
127.22465059396355
 30
0
 40
14.252726432525126
100
AcDbArc
 50
247.80709261898446
 51
255.3014284941695
  0
ARC
  5
19D
330
1F
100
AcDbEntity
  8
0
 62
7
100
AcDbCircle
 10
17.248135270687278
 20
127.93838566021472
 30
0
 40
14.991142391350602
100
AcDbArc
 50
255.29366479918656
 51
262.66947933473375
  0
ARC
  5
19E
330
1F
100
AcDbEntity
  8
0
 62
7
100
AcDbCircle
 10
17.322716469037495
 20
128.50861473235102
 30
0
 40
15.566226845641186
100
AcDbArc
 50
262.665009390388
 51
270.02007626660907
  0
LINE
  5
19F
330
1F
100
AcDbEntity
  8
0
 62
7
100
AcDbLine
 10
17.328170827395326
 20
112.94238884230512
 30
0
 11
169.04820449841739
 21
112.94238884204029
 31
0
  0
ARC
  5
1A0
330
1F
100
AcDbEntity
  8
0
 62
7
100
AcDbCircle
 10
169.02869372695156
 20
157.32772503584414
 30
0
 40
44.38534048204653
100
AcDbArc
 50
270.02518590336126
 51
272.0290252637011
  0
ARC
  5
1A1
330
1F
100
AcDbEntity
  8
0
 62
7
100
AcDbCircle
 10
168.81883338092905
 20
163.3777675132805
 30
0
 40
50.4390201647375
100
AcDbArc
 50
272.02393892065965
 51
273.88859528587415
  0
ARC
  5
1A2
330
1F
100
AcDbEntity
  8
0
 62
7
100
AcDbCircle
 10
168.47377863792411
 20
168.50856314355457
 30
0
 40
55.581404261344659
100
AcDbArc
 50
273.88478809584103
 51
275.65988359078619
  0
ARC
  5
1A3
330
1F
100
AcDbEntity
  8
0
 62
7
100
AcDbCircle
 10
168.07830574747149
 20
172.53032908870117
 30
0
 40
59.622566371642961
100
AcDbArc
 50
275.65691051570815
 51
277.38063954486717
  0
ARC
  5
1A4
330
1F
100
AcDbEntity
  8
0
 62
7
100
AcDbCircle
 10
167.7156002731702
 20
175.35099016632736
 30
0
 40
62.46645060055382
100
AcDbArc
 50
277.37821512871631
 51
279.08132356886222
  0
ARC
  5
1A5
330
1F
100
AcDbEntity
  8
0
 62
7
100
AcDbCircle
 10
167.45978207295946
 20
176.96610013596708
 30
0
 40
64.101693078028021
100
AcDbArc
 50
279.07925774295785
 51
280.7876456479292
  0
ARC
  5
1A6
330
1F
100
AcDbEntity
  8
0
 62
7
100
AcDbCircle
 10
167.3712084649668
 20
177.4420364095582
 30
0
 40
64.585796742215081
100
AcDbArc
 50
280.7858071185064
 51
282.52229706123478
  0
ARC
  5
1A7
330
1F
100
AcDbEntity
  8
0
 62
7
100
AcDbCircle
 10
167.49426448128136
 20
176.89677557523552
 30
0
 40
64.026825814643558
100
AcDbArc
 50
282.52059186081857
 51
284.30617630177164
  0
ARC
  5
1A8
330
1F
100
AcDbEntity
  8
0
 62
7
100
AcDbCircle
 10
167.85705929493497
 20
175.48136844618449
 30
0
 40
62.565663903439521
100
AcDbArc
 50
284.30453504932103
 51
286.1592878818214
  0
ARC
  5
1A9
330
1F
100
AcDbEntity
  8
0
 62
7
100
AcDbCircle
 10
168.47238740137141
 20
173.36393253454787
 30
0
 40
60.360633186265034
100
AcDbArc
 50
286.15765833296228
 51
288.10142026334228
  0
ARC
  5
1AA
330
1F
100
AcDbEntity
  8
0
 62
7
100
AcDbCircle
 10
169.33939257158812
 20
170.71690837599218
 30
0
 40
57.575236992751272
100
AcDbArc
 50
288.09976335104426
 51
290.1526631862892
  0
ARC
  5
1AB
330
1F
100
AcDbEntity
  8
0
 62
7
100
AcDbCircle
 10
170.44551092780964
 20
167.70759890128107
 30
0
 40
54.369080642954607
100
AcDbArc
 50
290.15095167036532
 51
292.33379237668362
  0
ARC
  5
1AC
330
1F
100
AcDbEntity
  8
0
 62
7
100
AcDbCircle
 10
171.76841168623693
 20
164.49160659635504
 30
0
 40
50.891628953909546
100
AcDbArc
 50
292.33201176175822
 51
294.66652342171233
  0
ARC
  5
1AD
330
1F
100
AcDbEntity
  8
0
 62
7
100
AcDbCircle
 10
173.27777226672552
 20
161.20861883004659
 30
0
 40
47.27829593135418
100
AcDbArc
 50
294.66467514842162
 51
297.17361179603591
  0
ARC
  5
1AE
330
1F
100
AcDbEntity
  8
0
 62
7
100
AcDbCircle
 10
174.93681103323638
 20
157.97997582787022
 30
0
 40
43.648345103602836
100
AcDbArc
 50
297.17171888515185
 51
299.87874982250293
  0
ARC
  5
1AF
330
1F
100
AcDbEntity
  8
0
 62
7
100
AcDbCircle
 10
176.70355714012538
 20
154.90751963640358
 30
0
 40
40.104141813640481
100
AcDbArc
 50
299.87686510349522
 51
302.8061828033608
  0
ARC
  5
1B0
330
1F
100
AcDbEntity
  8
0
 62
7
100
AcDbCircle
 10
178.5318697981088
 20
152.07331609322989
 30
0
 40
36.731392864729912
100
AcDbArc
 50
302.80439945158093
 51
305.97993778024653
  0
ARC
  5
1B1
330
1F
100
AcDbEntity
  8
0
 62
7
100
AcDbCircle
 10
180.37223580842897
 20
149.5399376092677
 30
0
 40
33.600106754053733
100
AcDbArc
 50
305.97840087300284
 51
309.42253663473667
  0
ARC
  5
1B2
330
1F
100
AcDbEntity
  8
0
 62
7
100
AcDbCircle
 10
182.17237997355346
 20
147.35107956780118
 30
0
 40
30.766095785330059
100
AcDbArc
 50
309.42145255106777
 51
313.15306588403718
  0
ARC
  5
1B3
330
1F
100
AcDbEntity
  8
0
 62
7
100
AcDbCircle
 10
183.87772314474819
 20
145.5323512835719
 30
0
 40
28.272911502407705
100
AcDbArc
 50
313.15270355910906
 51
317.184524511542
  0
ARC
  5
1B4
330
1F
100
AcDbEntity
  8
0
 62
7
100
AcDbCircle
 10
185.43171906071859
 20
144.09213539376987
 30
0
 40
26.154155968265474
100
AcDbArc
 50
317.18519952080652
 51
321.52050246906975
  0
ARC
  5
1B5
330
1F
100
AcDbEntity
  8
0
 62
7
100
AcDbCircle
 10
186.77609708469026
 20
143.02244735816745
 30
0
 40
24.436138517390134
100
AcDbArc
 50
321.52253381918104
 51
326.15148425696191
  0
ARC
  5
1B6
330
1F
100
AcDbEntity
  8
0
 62
7
100
AcDbCircle
 10
187.85103251097436
 20
142.29975456703696
 30
0
 40
23.140851380911869
100
AcDbArc
 50
326.15511852995019
 51
331.05141304047339
  0
ARC
  5
1B7
330
1F
100
AcDbEntity
  8
0
 62
7
100
AcDbCircle
 10
188.59526265992085
 20
141.88573218115718
 30
0
 40
22.289212597479779
100
AcDbArc
 50
331.05672485058426
 51
336.17549508804279
  0
ARC
  5
1B8
330
1F
100
AcDbEntity
  8
0
 62
7
100
AcDbCircle
 10
188.94616230159824
 20
141.72794588234083
 30
0
 40
21.904478666394237
100
AcDbArc
 50
336.18229502682289
 51
341.46036735051354
  0
ARC
  5
1B9
330
1F
100
AcDbEntity
  8
0
 62
7
100
AcDbCircle
 10
188.83978942723215
 20
141.76045895808997
 30
0
 40
22.015669287484677
100
AcDbArc
 50
341.46816600957527
 51
346.82744884021605
  0
ARC
  5
1BA
330
1F
100
AcDbEntity
  8
0
 62
7
100
AcDbCircle
 10
188.21090943679852
 20
141.90436614744988
 30
0
 40
22.660796738080435
100
AcDbArc
 50
346.83551756985543
 51
352.18945511740219
  0
ARC
  5
1BB
330
1F
100
AcDbEntity
  8
0
 62
7
100
AcDbCircle
 10
186.99300408508643
 20
142.06825916053859
 30
0
 40
23.889676318644106
100
AcDbArc
 50
352.19698171145808
 51
357.45893229786668
  0
LINE
  5
1BC
330
1F
100
AcDbEntity
  8
0
 62
7
100
AcDbLine
 10
210.85918968574848
 20
141.00909935940552
 30
0
 11
210.88439910003495
 21
142.14038760523761
 31
0
  0
LINE
  5
1BD
330
1F
100
AcDbEntity
  8
0
 62
7
100
AcDbLine
 10
210.88439910003495
 20
142.14038760523761
 30
0
 11
210.88439910003737
 21
143.52112010033886
 31
0
  0
LINE
  5
1BE
330
1F
100
AcDbEntity
  8
0
 62
4
100
AcDbLine
 10
27.158169191078173
 20
135.00142870485158
 30
0
 11
180.10084557151993
 21
135.00142870458461
 31
0
  0
LINE
  5
1BF
330
1F
100
AcDbEntity
  8
0
 62
7
100
AcDbLine
 10
5.0000011000373767
 20
35.57934310033886
 30
0
 11
5.0000011000349662
 21
34.198202104499046
 31
0
  0
LINE
  5
1C0
330
1F
100
AcDbEntity
  8
0
 62
7
100
AcDbLine
 10
5.0000011000349662
 20
34.198202104499046
 30
0
 11
5.02521051431751
 21
33.066913858666865
 31
0
  0
ARC
  5
1C1
330
1F
100
AcDbEntity
  8
0
 62
7
100
AcDbCircle
 10
28.891396115555171
 20
34.126073659766284
 30
0
 40
23.889676319217656
100
AcDbArc
 50
182.54106770199152
 51
187.80301828827305
  0
ARC
  5
1C2
330
1F
100
AcDbEntity
  8
0
 62
7
100
AcDbCircle
 10
27.673490766314231
 20
33.962180647198252
 30
0
 40
22.660796741172948
100
AcDbArc
 50
187.81054488276936
 51
193.16448242958504
  0
ARC
  5
1C3
330
1F
100
AcDbEntity
  8
0
 62
7
100
AcDbCircle
 10
27.044610773946211
 20
33.818273457591253
 30
0
 40
22.015669288637373
100
AcDbArc
 50
193.17255115972793
 51
198.53183399008867
  0
ARC
  5
1C4
330
1F
100
AcDbEntity
  8
0
 62
7
100
AcDbCircle
 10
26.938237893866756
 20
33.785760379739422
 30
0
 40
21.90447866146144
100
AcDbArc
 50
198.53963264868545
 51
203.817704973564
  0
ARC
  5
1C5
330
1F
100
AcDbEntity
  8
0
 62
7
100
AcDbCircle
 10
27.289137539995515
 20
33.943546680265513
 30
0
 40
22.289212597309717
100
AcDbArc
 50
203.82450491173739
 51
208.94327514923495
  0
ARC
  5
1C6
330
1F
100
AcDbEntity
  8
0
 62
7
100
AcDbCircle
 10
28.033367687826704
 20
34.357569065448111
 30
0
 40
23.1408513794284
100
AcDbArc
 50
208.94858695917864
 51
213.84488147001568
  0
ARC
  5
1C7
330
1F
100
AcDbEntity
  8
0
 62
7
100
AcDbCircle
 10
29.108303118185063
 20
35.080261859394341
 30
0
 40
24.436138520858734
100
AcDbArc
 50
213.84851574316809
 51
218.47746618029237
  0
ARC
  5
1C8
330
1F
100
AcDbEntity
  8
0
 62
7
100
AcDbCircle
 10
30.452681133991035
 20
36.14994988833439
 30
0
 40
26.154155961196171
100
AcDbArc
 50
218.47949753014331
 51
222.81480047957814
  0
ARC
  5
1C9
330
1F
100
AcDbEntity
  8
0
 62
7
100
AcDbCircle
 10
32.006677054656208
 20
37.590165782063522
 30
0
 40
28.27291150145124
100
AcDbArc
 50
222.81547548818565
 51
226.84729644075475
  0
ARC
  5
1CA
330
1F
100
AcDbEntity
  8
0
 62
7
100
AcDbCircle
 10
33.712020222678113
 20
39.4088940625675
 30
0
 40
30.7660957794858
100
AcDbArc
 50
226.84693411540326
 51
230.57854744908209
  0
ARC
  5
1CB
330
1F
100
AcDbEntity
  8
0
 62
7
100
AcDbCircle
 10
35.512164392763552
 20
41.597752109852365
 30
0
 40
33.600106755854462
100
AcDbArc
 50
230.577463365166
 51
234.02159912671476
  0
ARC
  5
1CC
330
1F
100
AcDbEntity
  8
0
 62
7
100
AcDbCircle
 10
37.352530401330313
 20
44.131130591410887
 30
0
 40
36.731392863555392
100
AcDbArc
 50
234.02006221950575
 51
237.19560054827318
  0
ARC
  5
1CD
330
1F
100
AcDbEntity
  8
0
 62
7
100
AcDbCircle
 10
39.180843065771548
 20
46.965334145038014
 30
0
 40
40.104141824751004
100
AcDbArc
 50
237.19381719684239
 51
240.123134895896
  0
ARC
  5
1CE
330
1F
100
AcDbEntity
  8
0
 62
7
100
AcDbCircle
 10
40.947589167438224
 20
50.037790328008839
 30
0
 40
43.648345104745239
100
AcDbArc
 50
240.1212501773266
 51
242.82828111460694
  0
ARC
  5
1CF
330
1F
100
AcDbEntity
  8
0
 62
7
100
AcDbCircle
 10
42.606627930203928
 20
53.266433322594693
 30
0
 40
47.278295924033507
100
AcDbArc
 50
242.82638820357818
 51
245.33532485158119
  0
ARC
  5
1D0
330
1F
100
AcDbEntity
  8
0
 62
7
100
AcDbCircle
 10
44.115988510976393
 20
56.549421088700505
 30
0
 40
50.89162894652317
100
AcDbArc
 50
245.33347657790429
 51
247.6679882381973
  0
ARC
  5
1D1
330
1F
100
AcDbEntity
  8
0
 62
7
100
AcDbCircle
 10
45.43888927699301
 20
59.7654134123575
 30
0
 40
54.369080655778092
100
AcDbArc
 50
247.66620762337752
 51
249.84904832918068
  0
ARC
  5
1D2
330
1F
100
AcDbEntity
  8
0
 62
7
100
AcDbCircle
 10
46.545007636800008
 20
62.7747228988325
 30
0
 40
57.575237017853709
100
AcDbArc
 50
249.84733681396605
 51
251.90023664831594
  0
ARC
  5
1D3
330
1F
100
AcDbEntity
  8
0
 62
7
100
AcDbCircle
 10
47.412012804220289
 20
65.421747051206779
 30
0
 40
60.360633204623142
100
AcDbArc
 50
251.89857973674816
 51
253.84234166653704
  0
ARC
  5
1D4
330
1F
100
AcDbEntity
  8
0
 62
7
100
AcDbCircle
 10
48.027340909169951
 20
67.53918295971792
 30
0
 40
62.565663918381887
100
AcDbArc
 50
253.84071211820722
 51
255.69546495026466
  0
ARC
  5
1D5
330
1F
100
AcDbEntity
  8
0
 62
7
100
AcDbCircle
 10
48.390135720369294
 20
68.954590080473281
 30
0
 40
64.02682582094107
100
AcDbArc
 50
255.69382369811765
 51
257.47940813889528
  0
ARC
  5
1D6
330
1F
100
AcDbEntity
  8
0
 62
7
100
AcDbCircle
 10
48.513191728921534
 20
69.499850878087742
 30
0
 40
64.585796710994558
100
AcDbArc
 50
257.47770293814341
 51
259.21419288171091
  0
ARC
  5
1D7
330
1F
100
AcDbEntity
  8
0
 62
7
100
AcDbCircle
 10
48.424618122275362
 20
69.023914606739623
 30
0
 40
64.101693049262892
100
AcDbArc
 50
259.21235435148191
 51
260.92074225722013
  0
ARC
  5
1D8
330
1F
100
AcDbEntity
  8
0
 62
7
100
AcDbCircle
 10
48.168799924931164
 20
67.408804651129543
 30
0
 40
62.466450586094894
100
AcDbArc
 50
260.91867643075426
 51
262.62178487129438
  0
ARC
  5
1D9
330
1F
100
AcDbEntity
  8
0
 62
7
100
AcDbCircle
 10
47.806094455379295
 20
64.588143611082813
 30
0
 40
59.62256639506225
100
AcDbArc
 50
262.61936045525624
 51
264.34308948373797
  0
ARC
  5
1DA
330
1F
100
AcDbEntity
  8
0
 62
7
100
AcDbCircle
 10
47.410621562693265
 20
60.5663776482173
 30
0
 40
55.581404266911186
100
AcDbArc
 50
264.34011640911064
 51
266.115211903878
  0
ARC
  5
1DB
330
1F
100
AcDbEntity
  8
0
 62
7
100
AcDbCircle
 10
47.065566820242829
 20
55.435582032285978
 30
0
 40
50.439020184651376
100
AcDbArc
 50
266.11140471429309
 51
267.97606107877095
  0
ARC
  5
1DC
330
1F
100
AcDbEntity
  8
0
 62
7
100
AcDbCircle
 10
46.855706473390924
 20
49.385539547248626
 30
0
 40
44.385340494334848
100
AcDbArc
 50
267.97097473637666
 51
269.97481409616228
  0
LINE
  5
1DD
330
1F
100
AcDbEntity
  8
0
 62
7
100
AcDbLine
 10
46.836195701550608
 20
5.0002033411565989
 30
0
 11
198.55622937257266
 21
5.0002033408917761
 31
0
  0
ARC
  5
1DE
330
1F
100
AcDbEntity
  8
0
 62
7
100
AcDbCircle
 10
198.56168373107624
 20
20.566429229475464
 30
0
 40
15.566226844179024
100
AcDbArc
 50
269.97992373285257
 51
277.3349906097647
  0
ARC
  5
1DF
330
1F
100
AcDbEntity
  8
0
 62
7
100
AcDbCircle
 10
198.63626492879004
 20
19.996200161598455
 30
0
 40
14.991142394194108
100
AcDbArc
 50
277.33052066575976
 51
284.70633519990588
  0
ARC
  5
1E0
330
1F
100
AcDbEntity
  8
0
 62
7
100
AcDbCircle
 10
198.82559085389576
 20
19.282465098838276
 30
0
 40
14.252726439140071
100
AcDbArc
 50
284.69857150736442
 51
292.19290737906636
  0
ARC
  5
1E1
330
1F
100
AcDbEntity
  8
0
 62
7
100
AcDbCircle
 10
199.18471894680596
 20
18.408624440100375
 30
0
 40
13.307970357915869
100
AcDbArc
 50
292.18235729278928
 51
299.93101773915794
  0
ARC
  5
1E2
330
1F
100
AcDbEntity
  8
0
 62
7
100
AcDbCircle
 10
199.75195637747547
 20
17.428689037655694
 30
0
 40
12.175705330548009
100
AcDbArc
 50
299.91860616385304
 51
308.088690662182
  0
ARC
  5
1E3
330
1F
100
AcDbEntity
  8
0
 62
7
100
AcDbCircle
 10
200.51762194446607
 20
16.455621798342612
 30
0
 40
10.937522212704671
100
AcDbArc
 50
308.07634856969332
 51
316.85251433873424
  0
ARC
  5
1E4
330
1F
100
AcDbEntity
  8
0
 62
7
100
AcDbCircle
 10
201.40564419074016
 20
15.625192739447066
 30
0
 40
9.7217123357782356
100
AcDbArc
 50
316.84413377345948
 51
326.39898833251618
  0
ARC
  5
1E5
330
1F
100
AcDbEntity
  8
0
 62
7
100
AcDbCircle
 10
202.27667649786849
 20
15.046058838391179
 30
0
 40
8.67572321944011
100
AcDbArc
 50
326.40118448037856
 51
336.83882724326878
  0
ARC
  5
1E6
330
1F
100
AcDbEntity
  8
0
 62
7
100
AcDbCircle
 10
202.95159799405019
 20
14.75418562981919
 30
0
 40
7.9404002468595793
100
AcDbArc
 50
336.85967651567938
 51
348.13160922768162
  0
ARC
  5
1E7
330
1F
100
AcDbEntity
  8
0
 62
7
100
AcDbCircle
 10
203.24511602336707
 20
14.686590418707844
 30
0
 40
7.6392571372301692
100
AcDbArc
 50
348.17499035621432
 51
0.0029320215967077214
  0
LINE
  5
1E8
330
1F
100
AcDbEntity
  8
0
 62
7
100
AcDbLine
 10
210.88437315059471
 20
14.686981345702637
 30
0
 11
210.88437315074057
 21
98.256019862072435
 31
0
  0
ARC
  5
1E9
330
1F
100
AcDbEntity
  8
0
 62
7
100
AcDbCircle
 10
203.24565271962723
 20
98.256408346981956
 30
0
 40
7.638720440991996
100
AcDbArc
 50
359.99708608975789
 51
11.82502282437378
  0
ARC
  5
1EA
330
1F
100
AcDbEntity
  8
0
 62
7
100
AcDbCircle
 10
202.95205235608111
 20
98.188797089638513
 30
0
 40
7.93994742638024
100
AcDbArc
 50
11.868397509264186
 51
23.140300658502277
  0
ARC
  5
1EB
330
1F
100
AcDbEntity
  8
0
 62
7
100
AcDbCircle
 10
202.27711937505455
 20
97.896920114853685
 30
0
 40
8.6752824383532641
100
AcDbArc
 50
23.161145989224046
 51
33.5987979682562
  0
ARC
  5
1EC
330
1F
100
AcDbEntity
  8
0
 62
7
100
AcDbCircle
 10
201.40610950528045
 20
97.317801637674549
 30
0
 40
9.7212443305903662
100
AcDbArc
 50
33.600993571242284
 51
43.155920154773888
  0
ARC
  5
1ED
330
1F
100
AcDbEntity
  8
0
 62
7
100
AcDbCircle
 10
200.51810328860151
 20
96.487385448553653
 30
0
 40
10.937033709695411
100
AcDbArc
 50
43.1475414742741
 51
51.923830388026424
  0
ARC
  5
1EE
330
1F
100
AcDbEntity
  8
0
 62
7
100
AcDbCircle
 10
199.75241246716914
 20
95.5142784360497
 30
0
 40
12.175263702933615
100
AcDbArc
 50
51.911491523365918
 51
60.081716058464885
  0
ARC
  5
1EF
330
1F
100
AcDbEntity
  8
0
 62
7
100
AcDbCircle
 10
199.18509186312491
 20
94.534183779587778
 30
0
 40
13.307708229230464
100
AcDbArc
 50
60.069308428140744
 51
67.8180788339694
  0
ARC
  5
1F0
330
1F
100
AcDbEntity
  8
0
 62
7
100
AcDbCircle
 10
198.82583374073454
 20
93.66000234749356
 30
0
 40
14.252828935343514
100
AcDbArc
 50
67.8075330895675
 51
75.30189408142617
  0
ARC
  5
1F1
330
1F
100
AcDbEntity
  8
0
 62
7
100
AcDbCircle
 10
198.63636886920173
 20
92.945709743664011
 30
0
 40
14.991819424207115
100
AcDbArc
 50
75.2941348008266
 51
82.669830210801209
  0
ARC
  5
1F2
330
1F
100
AcDbEntity
  8
0
 62
7
100
AcDbCircle
 10
198.56169292862165
 20
92.374709136930633
 30
0
 40
15.567681187989251
100
AcDbArc
 50
82.665364172988873
 51
90.020108241882113
  0
LINE
  5
1F3
330
1F
100
AcDbEntity
  8
0
 62
7
100
AcDbLine
 10
198.55622937275234
 20
107.94238936618868
 30
0
 11
166.54447752479041
 21
107.94238936624456
 31
0
  0
LINE
  5
1F4
330
1F
100
AcDbEntity
  8
0
 62
7
100
AcDbLine
 10
166.54447752479041
 20
107.94238936624456
 30
0
 11
165.26907242631319
 21
107.93937712165375
 31
0
  0
ARC
  5
1F5
330
1F
100
AcDbEntity
  8
0
 62
7
100
AcDbCircle
 10
166.55707443373763
 20
-164.50327061443767
 30
0
 40
272.44569230329768
100
AcDbArc
 50
90.270869960541646
 51
90.807364104319234
  0
ARC
  5
1F6
330
1F
100
AcDbEntity
  8
0
 62
7
100
AcDbCircle
 10
166.59666722463342
 20
-167.32035513645741
 30
0
 40
275.26305503858941
100
AcDbArc
 50
90.807342077931253
 51
91.338351521369532
  0
ARC
  5
1F7
330
1F
100
AcDbEntity
  8
0
 62
7
100
AcDbCircle
 10
166.65940212461464
 20
-170.01014225899971
 30
0
 40
277.95357365422575
100
AcDbArc
 50
91.338329615187646
 51
91.864129345590925
  0
ARC
  5
1F8
330
1F
100
AcDbEntity
  8
0
 62
7
100
AcDbCircle
 10
166.74243457790266
 20
-172.56460375287287
 30
0
 40
280.50938426941076
100
AcDbArc
 50
91.864107545355637
 51
92.384970843480389
  0
ARC
  5
1F9
330
1F
100
AcDbEntity
  8
0
 62
7
100
AcDbCircle
 10
166.84275449537898
 20
-174.97584150504491
 30
0
 40
282.922708029694
100
AcDbArc
 50
92.3849491334751
 51
92.901147759836448
  0
ARC
  5
1FA
330
1F
100
AcDbEntity
  8
0
 62
7
100
AcDbCircle
 10
166.95719256015244
 20
-177.236114809786
 30
0
 40
285.18587648813616
100
AcDbArc
 50
92.90112612265871
 51
93.412930522506628
  0
ARC
  5
1FB
330
1F
100
AcDbEntity
  8
0
 62
7
100
AcDbCircle
 10
167.0824273932686
 20
-179.33786961220528
 30
0
 40
287.29135909345308
100
AcDbArc
 50
93.412908939130787
 51
93.9205884632488
  0
ARC
  5
1FC
330
1F
100
AcDbEntity
  8
0
 62
7
100
AcDbCircle
 10
167.21499349976762
 20
-181.27376720781865
 30
0
 40
289.2317902985049
100
AcDbArc
 50
93.920566913331172
 51
94.424390056387224
  0
ARC
  5
1FD
330
1F
100
AcDbEntity
  8
0
 62
7
100
AcDbCircle
 10
167.35129006451621
 20
-183.0367138619855
 30
0
 40
290.99999776571758
100
AcDbArc
 50
94.424368517999582
 51
94.924603173402033
  0
ARC
  5
1FE
330
1F
100
AcDbEntity
  8
0
 62
7
100
AcDbCircle
 10
167.48759066840475
 20
-184.61989162907363
 30
0
 40
292.58903196446136
100
AcDbArc
 50
94.9245816231331
 51
95.421495352884833
  0
ARC
  5
1FF
330
1F
100
AcDbEntity
  8
0
 62
7
100
AcDbCircle
 10
167.6200537772815
 20
-186.01678820137522
 30
0
 40
293.99219499729509
100
AcDbArc
 50
95.421473766107923
 51
95.915334087833259
  0
ARC
  5
200
330
1F
100
AcDbEntity
  8
0
 62
7
100
AcDbCircle
 10
167.74473415391492
 20
-187.22122777017617
 30
0
 40
295.2030706551642
100
AcDbArc
 50
95.915312438357489
 51
96.406387128098331
  0
ARC
  5
201
330
1F
100
AcDbEntity
  8
0
 62
7
100
AcDbCircle
 10
167.85759512735967
 20
-188.22740176392711
 30
0
 40
296.21555457722826
100
AcDbArc
 50
96.4063653881725
 51
96.894922799417415
  0
ARC
  5
202
330
1F
100
AcDbEntity
  8
0
 62
7
100
AcDbCircle
 10
167.95452170704587
 20
-189.02989936237495
 30
0
 40
297.02388442608787
100
AcDbArc
 50
96.894900939689947
 51
97.3812103391143
  0
ARC
  5
203
330
1F
100
AcDbEntity
  8
0
 62
7
100
AcDbCircle
 10
168.03133456916083
 20
-189.62373798334141
 30
0
 40
297.62267028972525
100
AcDbArc
 50
97.381188328794963
 51
97.86552024870069
  0
ARC
  5
204
330
1F
100
AcDbEntity
  8
0
 62
7
100
AcDbCircle
 10
168.08380474071831
 20
-190.00439238368503
 30
0
 40
298.00692395346442
100
AcDbArc
 50
97.86549805543477
 51
98.348124664946752
  0
ARC
  5
205
330
1F
100
AcDbEntity
  8
0
 62
7
100
AcDbCircle
 10
168.10766920913835
 20
-190.16782425649382
 30
0
 40
298.17208895069109
100
AcDbArc
 50
98.348102254659125
 51
98.829297748444219
  0
ARC
  5
206
330
1F
100
AcDbEntity
  8
0
 62
7
100
AcDbCircle
 10
168.09864711955117
 20
-190.110509808666
 30
0
 40
298.11406886690168
100
AcDbArc
 50
98.829275085264129
 51
99.309316092485119
  0
ARC
  5
207
330
1F
100
AcDbEntity
  8
0
 62
7
100
AcDbCircle
 10
168.05245681219492
 20
-189.82946730211029
 30
0
 40
297.82925590944581
100
AcDbArc
 50
99.309293138656855
 51
99.788459151418181
  0
ARC
  5
208
330
1F
100
AcDbEntity
  8
0
 62
7
100
AcDbCircle
 10
167.96483330593674
 20
-189.3222820693629
 30
0
 40
297.31455723590739
100
AcDbArc
 50
99.78843586724777
 51
100.26700969164598
  0
ARC
  5
209
330
1F
100
AcDbEntity
  8
0
 62
7
100
AcDbCircle
 10
167.83154651622553
 20
-188.58713108685546
 30
0
 40
296.56742115702878
100
AcDbArc
 50
100.2669860352903
 51
100.74525426457832
  0
ARC
  5
20A
330
1F
100
AcDbEntity
  8
0
 62
7
100
AcDbCircle
 10
167.64841985293918
 20
-187.62280509968826
 30
0
 40
295.58586119000785
100
AcDbArc
 50
100.74523019195613
 51
101.22348370439515
  0
ARC
  5
20B
330
1F
100
AcDbEntity
  8
0
 62
7
100
AcDbCircle
 10
167.41134920996939
 20
-186.42872873365104
 30
0
 40
294.36847840643838
100
AcDbArc
 50
101.22345916910054
 51
101.70199365217002
  0
ARC
  5
20C
330
1F
100
AcDbEntity
  8
0
 62
7
100
AcDbCircle
 10
167.1163223572654
 20
-185.00497887948364
 30
0
 40
292.91448236979312
100
AcDbArc
 50
101.70196860508338
 51
102.18108510706293
  0
ARC
  5
20D
330
1F
100
AcDbEntity
  8
0
 62
7
100
AcDbCircle
 10
166.75943850859827
 20
-183.35230040426555
 30
0
 40
291.22370970416205
100
AcDbArc
 50
102.18105949649959
 51
102.66106500780678
  0
ARC
  5
20E
330
1F
100
AcDbEntity
  8
0
 62
7
100
AcDbCircle
 10
166.3369278352738
 20
-181.47211851449364
 30
0
 40
289.29663959904292
100
AcDbArc
 50
102.66103877907828
 51
103.14224684675199
  0
ARC
  5
20F
330
1F
100
AcDbEntity
  8
0
 62
7
100
AcDbCircle
 10
165.84517137227135
 20
-179.3665501099062
 30
0
 40
287.13440864306597
100
AcDbArc
 50
103.14221994201174
 51
103.62495131665921
  0
ARC
  5
210
330
1F
100
AcDbEntity
  8
0
 62
7
100
AcDbCircle
 10
165.28072024216814
 20
-177.03840960425373
 30
0
 40
284.73882034928391
100
AcDbArc
 50
103.6249236747512
 51
104.1095069968222
  0
ARC
  5
211
330
1F
100
AcDbEntity
  8
0
 62
7
100
AcDbCircle
 10
164.64031519326664
 20
-174.49121404049109
 30
0
 40
282.112354311637
100
AcDbArc
 50
104.10947855271495
 51
104.59625107671685
  0
ARC
  5
212
330
1F
100
AcDbEntity
  8
0
 62
7
100
AcDbCircle
 10
163.92090539714843
 20
-171.72918325434611
 30
0
 40
279.25817062838536
100
AcDbArc
 50
104.59622176150921
 51
105.08553012398852
  0
ARC
  5
213
330
1F
100
AcDbEntity
  8
0
 62
7
100
AcDbCircle
 10
163.11966689807963
 20
-168.75723723328917
 30
0
 40
276.18011178181433
100
AcDbArc
 50
105.08549986453738
 51
105.57770089802037
  0
ARC
  5
214
330
1F
100
AcDbEntity
  8
0
 62
7
100
AcDbCircle
 10
162.2340204215929
 20
-165.58098984207049
 30
0
 40
272.88270110841114
100
AcDbArc
 50
105.57766961678328
 51
106.0731312133609
  0
ARC
  5
215
330
1F
100
AcDbEntity
  8
0
 62
7
100
AcDbCircle
 10
161.26164829485697
 20
-162.20673844942408
 30
0
 40
269.37113735558756
100
AcDbArc
 50
106.07309882780447
 51
106.57220085708191
  0
ARC
  5
216
330
1F
100
AcDbEntity
  8
0
 62
7
100
AcDbCircle
 10
160.20051073729007
 20
-158.64145077667717
 30
0
 40
265.65128667566194
100
AcDbArc
 50
106.57216727930272
 51
107.07530256315647
  0
ARC
  5
217
330
1F
100
AcDbEntity
  8
0
 62
7
100
AcDbCircle
 10
159.0488609013473
 20
-154.89274716492477
 30
0
 40
261.72967016105355
100
AcDbArc
 50
107.07526769955476
 51
107.58284304976635
  0
ARC
  5
218
330
1F
100
AcDbEntity
  8
0
 62
7
100
AcDbCircle
 10
157.80525888001486
 20
-150.96887948921164
 30
0
 40
257.61344816789278
100
AcDbArc
 50
107.58280680052168
 51
108.09524412341989
  0
ARC
  5
219
330
1F
100
AcDbEntity
  8
0
 62
7
100
AcDbCircle
 10
156.46858450567439
 20
-146.87870650258134
 30
0
 40
253.31040117590391
100
AcDbArc
 50
108.09520638207815
 51
108.61294385508009
  0
ARC
  5
21A
330
1F
100
AcDbEntity
  8
0
 62
7
100
AcDbCircle
 10
155.03804870146536
 20
-142.63166526989355
 30
0
 40
248.82890679461232
100
AcDbArc
 50
108.61290450814833
 51
109.13639783428938
  0
ARC
  5
21B
330
1F
100
AcDbEntity
  8
0
 62
7
100
AcDbCircle
 10
153.5132033812414
 20
-138.23773912049904
 30
0
 40
244.17791332808093
100
AcDbArc
 50
109.13635676055739
 51
109.66608050684049
  0
ARC
  5
21C
330
1F
100
AcDbEntity
  8
0
 62
7
100
AcDbCircle
 10
151.89394990935966
 20
-133.70742251998794
 30
0
 40
239.36691028565261
100
AcDbArc
 50
109.66603757700311
 51
110.20248660211647
  0
ARC
  5
21D
330
1F
100
AcDbEntity
  8
0
 62
7
100
AcDbCircle
 10
150.18054574395461
 20
-129.05168217034964
 30
0
 40
234.40589506668948
100
AcDbArc
 50
110.20244167797502
 51
110.74613265722843
  0
ARC
  5
21E
330
1F
100
AcDbEntity
  8
0
 62
7
100
AcDbCircle
 10
148.37360961004359
 20
-124.28191570289208
 30
0
 40
229.30533722368392
100
AcDbArc
 50
110.74608559120911
 51
111.29755864421881
  0
ARC
  5
21F
330
1F
100
AcDbEntity
  8
0
 62
7
100
AcDbCircle
 10
146.47412462937652
 20
-119.40990675495321
 30
0
 40
224.07613897324123
100
AcDbArc
 50
111.29750927849389
 51
111.8573297089108
  0
ARC
  5
220
330
1F
100
AcDbEntity
  8
0
 62
7
100
AcDbCircle
 10
144.48344006950114
 20
-114.44777855128777
 30
0
 40
218.72959417436178
100
AcDbArc
 50
111.85727787490417
 51
112.42603802714062
  0
ARC
  5
221
330
1F
100
AcDbEntity
  8
0
 62
7
100
AcDbCircle
 10
142.40327074161809
 20
-109.40794380051349
 30
0
 40
213.27734338174443
100
AcDbArc
 50
112.42598354479445
 51
113.00430478932816
  0
ARC
  5
222
330
1F
100
AcDbEntity
  8
0
 62
7
100
AcDbCircle
 10
140.23569513415518
 20
-104.30305400932839
 30
0
 40
207.7313282582646
100
AcDbArc
 50
113.00424746616251
 51
113.59278231778757
  0
ARC
  5
223
330
1F
100
AcDbEntity
  8
0
 62
7
100
AcDbCircle
 10
137.9831512301362
 20
-99.14594586560122
 30
0
 40
202.10374277255028
100
AcDbArc
 50
113.59272194877038
 51
114.19215632953248
  0
ARC
  5
224
330
1F
100
AcDbEntity
  8
0
 62
7
100
AcDbCircle
 10
135.6484307997159
 20
-93.949586950845628
 30
0
 40
196.4069835701423
100
AcDbArc
 50
114.19209269579194
 51
114.80314834904259
  0
ARC
  5
225
330
1F
100
AcDbEntity
  8
0
 62
7
100
AcDbCircle
 10
133.23467172998673
 20
-88.72701997201321
 30
0
 40
190.65359859747761
100
AcDbArc
 50
114.80308121701417
 51
115.42651828223033
  0
ARC
  5
226
330
1F
100
AcDbEntity
  8
0
 62
7
100
AcDbCircle
 10
130.74534909631097
 20
-83.491307307897443
 30
0
 40
184.85623590209806
100
AcDbArc
 50
115.42644740359781
 51
116.06306715630978
  0
ARC
  5
227
330
1F
100
AcDbEntity
  8
0
 62
7
100
AcDbCircle
 10
128.18426363008339
 20
-78.255473188200142
 30
0
 40
179.02758960662172
100
AcDbArc
 50
116.06299226722011
 51
116.71364003851502
  0
ARC
  5
228
330
1F
100
AcDbEntity
  8
0
 62
7
100
AcDbCircle
 10
125.5555297789837
 20
-73.032448395580218
 30
0
 40
173.18034841226103
100
AcDbArc
 50
116.7135608590135
 51
117.37912913179592
  0
ARC
  5
229
330
1F
100
AcDbEntity
  8
0
 62
7
100
AcDbCircle
 10
122.86356115542301
 20
-67.835013001315048
 30
0
 40
167.32714162573293
100
AcDbArc
 50
117.37904536583042
 51
118.06047706147262
  0
ARC
  5
22A
330
1F
100
AcDbEntity
  8
0
 62
7
100
AcDbCircle
 10
120.11305551163963
 20
-62.67574168836947
 30
0
 40
161.48048773548413
100
AcDbArc
 50
118.06038839666678
 51
118.75868034735836
  0
ARC
  5
22B
330
1F
100
AcDbEntity
  8
0
 62
7
100
AcDbCircle
 10
117.30897757462837
 20
-57.566948446628373
 30
0
 40
155.65274191087968
100
AcDbArc
 50
118.75858645489285
 51
119.47479306899892
  0
ARC
  5
22C
330
1F
100
AcDbEntity
  8
0
 62
7
100
AcDbCircle
 10
114.45654169141243
 20
-52.520634474320715
 30
0
 40
149.85604672269957
100
AcDbArc
 50
119.47469360452574
 51
120.20993071263334
  0
ARC
  5
22D
330
1F
100
AcDbEntity
  8
0
 62
7
100
AcDbCircle
 10
111.56119248838138
 20
-47.548435978449817
 30
0
 40
144.10228231869729
100
AcDbArc
 50
120.20982531803219
 51
120.96527419963586
  0
ARC
  5
22E
330
1F
100
AcDbEntity
  8
0
 62
7
100
AcDbCircle
 10
108.62858509089432
 20
-42.6615748212795
 30
0
 40
138.40301938025863
100
AcDbArc
 50
120.96516250397259
 51
121.74207407599583
  0
ARC
  5
22F
330
1F
100
AcDbEntity
  8
0
 62
7
100
AcDbCircle
 10
105.66456478053014
 20
-37.870811694125535
 30
0
 40
132.76947452268359
100
AcDbArc
 50
121.74195569881614
 51
122.54165484067758
  0
ARC
  5
230
330
1F
100
AcDbEntity
  8
0
 62
7
100
AcDbCircle
 10
102.67514535848184
 20
-33.186400643968156
 30
0
 40
127.21246675889631
100
AcDbArc
 50
122.5415293953761
 51
123.36541938458048
  0
ARC
  5
231
330
1F
100
AcDbEntity
  8
0
 62
7
100
AcDbCircle
 10
99.666487818974019
 20
-28.618047577788175
 30
0
 40
121.74237810842759
100
AcDbArc
 50
123.36528648342831
 51
124.2148534871415
  0
ARC
  5
232
330
1F
100
AcDbEntity
  8
0
 62
7
100
AcDbCircle
 10
96.644878141114759
 20
-24.174870735859614
 30
0
 40
116.36911602580926
100
AcDbArc
 50
124.21471274862677
 51
125.09153031482515
  0
ARC
  5
233
330
1F
100
AcDbEntity
  8
0
 62
7
100
AcDbCircle
 10
93.6167048808606
 20
-19.865364227633719
 30
0
 40
111.10207895064158
100
AcDbArc
 50
125.09138137170427
 51
125.99711483833963
  0
ARC
  5
234
330
1F
100
AcDbEntity
  8
0
 62
7
100
AcDbCircle
 10
90.588437247614166
 20
-15.697365501612836
 30
0
 40
105.95012610247389
100
AcDbArc
 50
125.99695734916213
 51
126.93336805720497
  0
ARC
  5
235
330
1F
100
AcDbEntity
  8
0
 62
7
100
AcDbCircle
 10
87.566602533680893
 20
-11.678025015089474
 30
0
 40
100.92154947535364
100
AcDbArc
 50
126.93320172145361
 51
127.90215090425478
  0
ARC
  5
236
330
1F
100
AcDbEntity
  8
0
 62
7
100
AcDbCircle
 10
84.557764241507272
 20
-7.8137799452260168
 30
0
 40
96.024050344412444
100
AcDbArc
 50
127.90197547967696
 51
128.90542764846876
  0
ARC
  5
237
330
1F
100
AcDbEntity
  8
0
 62
7
100
AcDbCircle
 10
81.5685003492203
 20
-4.1103309928318339
 30
0
 40
91.264719228627754
100
AcDbArc
 50
128.90524297407072
 51
129.94526858437851
  0
ARC
  5
238
330
1F
100
AcDbEntity
  8
0
 62
7
100
AcDbCircle
 10
78.605382063123159
 20
-0.57262263071501707
 30
0
 40
86.650019851403542
100
AcDbArc
 50
129.94507460786897
 51
131.02385173585139
  0
ARC
  5
239
330
1F
100
AcDbEntity
  8
0
 62
7
100
AcDbCircle
 10
75.674953048020328
 20
2.7951733641208278
 30
0
 40
82.185777028054
100
AcDbArc
 50
131.02364854730035
 51
132.14346324514477
  0
ARC
  5
23A
330
1F
100
AcDbEntity
  8
0
 62
7
100
AcDbCircle
 10
72.783709598964563
 20
5.9896707114601355
 30
0
 40
77.877169144278156
100
AcDbArc
 50
132.14325111913018
 51
133.30649603916314
  0
ARC
  5
23B
330
1F
100
AcDbEntity
  8
0
 62
7
100
AcDbCircle
 10
69.93808093559332
 20
9.00827885817759
 30
0
 40
73.728723947804284
100
AcDbArc
 50
133.30627548358521
 51
134.51544629644883
  0
ARC
  5
23C
330
1F
100
AcDbEntity
  8
0
 62
7
100
AcDbCircle
 10
67.144411022257387
 20
11.84920921464505
 30
0
 40
69.744319752266875
100
AcDbArc
 50
134.51521811009349
 51
135.77290712281868
  0
ARC
  5
23D
330
1F
100
AcDbEntity
  8
0
 62
7
100
AcDbCircle
 10
64.408940751850253
 20
14.511478888926014
 30
0
 40
65.927190288684216
100
AcDbArc
 50
135.77267246347077
 51
137.08155876695002
  0
ARC
  5
23E
330
1F
100
AcDbEntity
  8
0
 62
7
100
AcDbCircle
 10
61.7377912968128
 20
16.99491120697251
 30
0
 40
62.279934413687364
100
AcDbArc
 50
137.08131922878061
 51
138.44415458137652
  0
ARC
  5
23F
330
1F
100
AcDbEntity
  8
0
 62
7
100
AcDbCircle
 10
59.136948426677506
 20
19.300133435924245
 30
0
 40
58.804530394801233
100
AcDbArc
 50
138.44391228113344
 51
139.86350183193503
  0
ARC
  5
240
330
1F
100
AcDbEntity
  8
0
 62
7
100
AcDbCircle
 10
56.612247902604523
 20
21.428571798903597
 30
0
 40
55.502354968983425
100
AcDbArc
 50
139.86325950636225
 51
141.34243635880605
  0
ARC
  5
241
330
1F
100
AcDbEntity
  8
0
 62
7
100
AcDbCircle
 10
54.169361710916434
 20
23.382444160722834
 30
0
 40
52.37420693839303
100
AcDbArc
 50
141.34219746571119
 51
142.88379000994749
  0
ARC
  5
242
330
1F
100
AcDbEntity
  8
0
 62
7
100
AcDbCircle
 10
51.813785639152592
 20
25.164750134734511
 30
0
 40
49.4203360588985
100
AcDbArc
 50
142.88355883028891
 51
144.49034971273429
  0
ARC
  5
243
330
1F
100
AcDbEntity
  8
0
 62
7
100
AcDbCircle
 10
49.550827729874747
 20
26.779259197037959
 30
0
 40
46.640476713900362
100
AcDbArc
 50
144.49013144784115
 51
146.16480707600954
  0
ARC
  5
244
330
1F
100
AcDbEntity
  8
0
 62
7
100
AcDbCircle
 10
47.385598027171682
 20
28.230496657206537
 30
0
 40
44.033887024967164
100
AcDbArc
 50
146.16460792953535
 51
147.9096974973103
  0
ARC
  5
245
330
1F
100
AcDbEntity
  8
0
 62
7
100
AcDbCircle
 10
45.3229992332694
 20
29.523727959836339
 30
0
 40
41.599393038518777
100
AcDbArc
 50
147.90952472971438
 51
149.72732798684598
  0
ARC
  5
246
330
1F
100
AcDbEntity
  8
0
 62
7
100
AcDbCircle
 10
43.367718485916669
 20
30.664941323991105
 30
0
 40
39.335438371571485
100
AcDbArc
 50
149.72718992339657
 51
151.6196932902003
  0
ARC
  5
247
330
1F
100
AcDbEntity
  8
0
 62
7
100
AcDbCircle
 10
41.5242203088186
 20
31.660828881706642
 30
0
 40
37.240139454320861
100
AcDbArc
 50
151.61959926550117
 51
153.58838047344642
  0
ARC
  5
248
330
1F
100
AcDbEntity
  8
0
 62
7
100
AcDbCircle
 10
39.796740291126206
 20
32.51876673331347
 30
0
 40
35.311345901834713
100
AcDbArc
 50
153.58834068537297
 51
155.63446296540056
  0
ARC
  5
249
330
1F
100
AcDbEntity
  8
0
 62
7
100
AcDbCircle
 10
38.189280177208339
 20
33.246793699871894
 30
0
 40
33.546706765455
100
AcDbArc
 50
155.63448821881937
 51
157.7583860881841
  0
ARC
  5
24A
330
1F
100
AcDbEntity
  8
0
 62
7
100
AcDbCircle
 10
36.705603512369713
 20
33.853589389151473
 30
0
 40
31.943741559667949
100
AcDbArc
 50
157.75848740789121
 51
159.95984746093157
  0
ARC
  5
24B
330
1F
100
AcDbEntity
  8
0
 62
7
100
AcDbCircle
 10
35.349232555646893
 20
34.348451360406727
 30
0
 40
30.49991659370593
100
AcDbArc
 50
159.960035560475
 51
162.2376771153842
  0
ARC
  5
24C
330
1F
100
AcDbEntity
  8
0
 62
7
100
AcDbCircle
 10
34.123445705245622
 20
34.741271866415353
 30
0
 40
29.212725337297918
100
AcDbArc
 50
162.23796172094984
 51
164.5897237867101
  0
ARC
  5
24D
330
1F
100
AcDbEntity
  8
0
 62
7
100
AcDbCircle
 10
33.0312761379128
 20
35.042514021365683
 30
0
 40
28.079772927924065
100
AcDbArc
 50
164.59011283787993
 51
167.01275526850631
  0
ARC
  5
24E
330
1F
100
AcDbEntity
  8
0
 62
7
100
AcDbCircle
 10
32.075511007029817
 20
35.263187783330871
 30
0
 40
27.098863229243367
100
AcDbArc
 50
167.0132540489181
 51
169.50238190031868
  0
ARC
  5
24F
330
1F
100
AcDbEntity
  8
0
 62
7
100
AcDbCircle
 10
31.258691448389662
 20
35.414825765103409
 30
0
 40
26.268087574726692
100
AcDbArc
 50
169.50299216608011
 51
172.05301271266612
  0
ARC
  5
250
330
1F
100
AcDbEntity
  8
0
 62
7
100
AcDbCircle
 10
30.583113135520389
 20
35.509459045343746
 30
0
 40
25.585913543668195
100
AcDbArc
 50
172.05373191534565
 51
174.65785333450759
  0
ARC
  5
251
330
1F
100
AcDbEntity
  8
0
 62
7
100
AcDbCircle
 10
30.050827852162534
 20
35.559593013671758
 30
0
 40
25.051272630398927
100
AcDbArc
 50
174.65867406450491
 51
177.30895311953353
  0
ARC
  5
252
330
1F
100
AcDbEntity
  8
0
 62
7
100
AcDbCircle
 10
29.663645092677591
 20
35.578183500683586
 30
0
 40
24.663644019900406
100
AcDbArc
 50
177.30986287523558
 51
179.99730614964508
  0
LINE
  5
253
330
1F
100
AcDbEntity
  8
0
 62
4
100
AcDbLine
 10
188.72627185904051
 20
27.059202353398884
 30
0
 11
35.78359547859921
 21
27.059202353665839
 31
0
  0
ENDSEC
  0
SECTION
  2
OBJECTS
  0
DICTIONARY
  5
C
330
0
100
AcDbDictionary
280
0
281
1
  3
ACAD_SCALELIST
350
259
  3
ACAD_COLOR
350
26B
  3
ACAD_FIELDLIST
350
26C
  3
ACAD_GROUP
350
D
  3
ACAD_IMAGE_DICT
350
26D
  3
ACAD_LAYOUT
350
1A
  3
ACAD_MATERIAL
350
26E
  3
ACAD_MLEADERSTYLE
350
26F
  3
ACAD_MLINESTYLE
350
17
  3
ACAD_PLOTSETTINGS
350
19
  3
ACAD_PLOTSTYLENAME
350
E
  3
ACAD_TABLESTYLE
350
271
  3
ACDB_RECOMPOSE_DATA
350
275
  3
AcDbVariableDictionary
350
276
  3
ACAD_VISUALSTYLE
350
279
  0
DICTIONARY
  5
273
330
272
100
AcDbDictionary
280
0
281
1
  3
ACAD_ROUNDTRIP_2008_TABLESTYLE_CELLSTYLEMAP
360
274
  0
DICTIONARY
  5
259
102
{ACAD_REACTORS
330
C
102
}
330
C
100
AcDbDictionary
280
0
281
1
  3
A0
350
25A
  3
A1
350
25B
  3
A2
350
25C
  3
A3
350
25D
  3
A4
350
25E
  3
A5
350
25F
  3
A6
350
260
  3
A7
350
261
  3
A8
350
262
  3
A9
350
263
  3
B0
350
264
  3
B1
350
265
  3
B2
350
266
  3
B3
350
267
  3
B4
350
268
  3
B5
350
269
  3
B6
350
26A
  0
DICTIONARY
  5
26B
102
{ACAD_REACTORS
330
C
102
}
330
C
100
AcDbDictionary
280
0
281
1
  0
FIELDLIST
  5
26C
102
{ACAD_REACTORS
330
C
102
}
330
C
100
AcDbIdSet
100
AcDbFieldList
  0
DICTIONARY
  5
D
102
{ACAD_REACTORS
330
C
102
}
330
C
100
AcDbDictionary
280
0
281
1
  0
DICTIONARY
  5
26D
102
{ACAD_REACTORS
330
C
102
}
330
C
100
AcDbDictionary
280
0
281
1
  0
DICTIONARY
  5
1A
102
{ACAD_REACTORS
330
C
102
}
330
C
100
AcDbDictionary
280
0
281
1
  3
Layout1
350
1E
  3
Model
350
22
  0
DICTIONARY
  5
26E
102
{ACAD_REACTORS
330
C
102
}
330
C
100
AcDbDictionary
280
0
281
1
  0
DICTIONARY
  5
26F
102
{ACAD_REACTORS
330
C
102
}
330
C
100
AcDbDictionary
280
0
281
1
  3
Standard
350
270
  0
DICTIONARY
  5
17
102
{ACAD_REACTORS
330
C
102
}
330
C
100
AcDbDictionary
280
0
281
1
  3
STANDARD
350
18
  0
DICTIONARY
  5
19
102
{ACAD_REACTORS
330
C
102
}
330
C
100
AcDbDictionary
280
0
281
1
  0
ACDBDICTIONARYWDFLT
  5
E
102
{ACAD_REACTORS
330
C
102
}
330
C
100
AcDbDictionary
280
0
281
1
  3
Normal
350
F
100
AcDbDictionaryWithDefault
340
F
  0
ACDBPLACEHOLDER
  5
F
102
{ACAD_REACTORS
330
E
102
}
330
E
  0
DICTIONARY
  5
271
102
{ACAD_REACTORS
330
C
102
}
330
C
100
AcDbDictionary
280
0
281
1
  3
Standard
350
272
  0
XRECORD
  5
275
102
{ACAD_REACTORS
330
C
102
}
330
C
100
AcDbXrecord
280
1
 90
1
330
272
  0
DICTIONARY
  5
276
102
{ACAD_REACTORS
330
C
102
}
330
C
100
AcDbDictionary
280
0
281
1
  3
DIMASSOC
350
277
  3
HIDETEXT
350
278
  0
DICTIONARY
  5
279
102
{ACAD_REACTORS
330
C
102
}
330
C
100
AcDbDictionary
280
0
281
1
  0
CELLSTYLEMAP
  5
274
102
{ACAD_REACTORS
330
273
102
}
330
273
100
AcDbCellStyleMap
 90
3
300
CELLSTYLE
  1
TABLEFORMAT_BEGIN
 90
5
170
0
309
TABLEFORMAT_END
  1
CELLSTYLE_BEGIN
 90
3
 91
2
300
_DATA
309
CELLSTYLE_END
300
CELLSTYLE
  1
TABLEFORMAT_BEGIN
 90
5
170
0
309
TABLEFORMAT_END
  1
CELLSTYLE_BEGIN
 90
1
 91
2
300
_TITLE
309
CELLSTYLE_END
300
CELLSTYLE
  1
TABLEFORMAT_BEGIN
 90
5
170
0
309
TABLEFORMAT_END
  1
CELLSTYLE_BEGIN
 90
2
 91
2
300
_HEADER
309
CELLSTYLE_END
  0
SCALE
  5
25A
102
{ACAD_REACTORS
330
259
102
}
330
259
100
AcDbScale
 70
0
300
1:1
140
1
141
1
290
1
  0
SCALE
  5
25B
102
{ACAD_REACTORS
330
259
102
}
330
259
100
AcDbScale
 70
0
300
1:2
140
1
141
2
290
0
  0
SCALE
  5
25C
102
{ACAD_REACTORS
330
259
102
}
330
259
100
AcDbScale
 70
0
300
1:4
140
1
141
4
290
0
  0
SCALE
  5
25D
102
{ACAD_REACTORS
330
259
102
}
330
259
100
AcDbScale
 70
0
300
1:5
140
1
141
5
290
0
  0
SCALE
  5
25E
102
{ACAD_REACTORS
330
259
102
}
330
259
100
AcDbScale
 70
0
300
1:8
140
1
141
8
290
0
  0
SCALE
  5
25F
102
{ACAD_REACTORS
330
259
102
}
330
259
100
AcDbScale
 70
0
300
1:10
140
1
141
10
290
0
  0
SCALE
  5
260
102
{ACAD_REACTORS
330
259
102
}
330
259
100
AcDbScale
 70
0
300
1:16
140
1
141
16
290
0
  0
SCALE
  5
261
102
{ACAD_REACTORS
330
259
102
}
330
259
100
AcDbScale
 70
0
300
1:20
140
1
141
20
290
0
  0
SCALE
  5
262
102
{ACAD_REACTORS
330
259
102
}
330
259
100
AcDbScale
 70
0
300
1:30
140
1
141
30
290
0
  0
SCALE
  5
263
102
{ACAD_REACTORS
330
259
102
}
330
259
100
AcDbScale
 70
0
300
1:40
140
1
141
40
290
0
  0
SCALE
  5
264
102
{ACAD_REACTORS
330
259
102
}
330
259
100
AcDbScale
 70
0
300
1:50
140
1
141
50
290
0
  0
SCALE
  5
265
102
{ACAD_REACTORS
330
259
102
}
330
259
100
AcDbScale
 70
0
300
1:100
140
1
141
100
290
0
  0
SCALE
  5
266
102
{ACAD_REACTORS
330
259
102
}
330
259
100
AcDbScale
 70
0
300
2:1
140
2
141
1
290
0
  0
SCALE
  5
267
102
{ACAD_REACTORS
330
259
102
}
330
259
100
AcDbScale
 70
0
300
4:1
140
4
141
1
290
0
  0
SCALE
  5
268
102
{ACAD_REACTORS
330
259
102
}
330
259
100
AcDbScale
 70
0
300
8:1
140
8
141
1
290
0
  0
SCALE
  5
269
102
{ACAD_REACTORS
330
259
102
}
330
259
100
AcDbScale
 70
0
300
10:1
140
10
141
1
290
0
  0
SCALE
  5
26A
102
{ACAD_REACTORS
330
259
102
}
330
259
100
AcDbScale
 70
0
300
100:1
140
100
141
1
290
0
  0
LAYOUT
  5
1E
102
{ACAD_REACTORS
330
1A
102
}
330
1A
100
AcDbPlotSettings
  1

  2
C:\Program Files\AutoCAD 2002\plotters\DWF ePlot (optimized for plotting).pc3
  4

  6

 40
0
 41
0
 42
0
 43
0
 44
0
 45
0
 46
0
 47
0
 48
0
 49
0
140
0
141
0
142
1
143
1
 70
688
 72
1
 73
1
 74
1
  7
acad.stb
 75
16
 76
0
 77
0
 78
0
147
1
148
0
149
0
100
AcDbLayout
  1
Layout1
 70
1
 71
1
 10
0
 20
0
 11
420
 21
297
 12
0
 22
0
 32
0
 14
0
 24
0
 34
0
 15
0
 25
0
 35
0
146
0
 13
0
 23
0
 33
0
 16
1
 26
0
 36
0
 17
0
 27
1
 37
0
 76
0
330
254
  0
LAYOUT
  5
22
102
{ACAD_REACTORS
330
1A
102
}
330
1A
100
AcDbPlotSettings
  1

  2
C:\Program Files\AutoCAD 2002\plotters\DWF ePlot (optimized for plotting).pc3
  4

  6

 40
0
 41
0
 42
0
 43
0
 44
0
 45
0
 46
0
 47
0
 48
0
 49
0
140
0
141
0
142
1
143
1
 70
1712
 72
1
 73
1
 74
0
  7
acad.stb
 75
0
 76
0
 77
0
 78
0
147
1
148
0
149
0
100
AcDbLayout
  1
Model
 70
1
 71
0
 10
0
 20
0
 11
12
 21
9
 12
0
 22
0
 32
0
 14
0
 24
0
 34
0
 15
0
 25
0
 35
0
146
0
 13
0
 23
0
 33
0
 16
1
 26
0
 36
0
 17
0
 27
1
 37
0
 76
0
330
1F
  0
MLEADERSTYLE
  5
270
102
{ACAD_REACTORS
330
26F
102
}
330
26F
100
AcDbMLeaderStyle
179
2
170
2
171
1
172
0
 90
2
 40
0
 41
0
173
1
 91
0
340
0
 92
-2
290
1
 42
0.09
292
1
 43
0.36
  3
Standard
341
0
 44
0.18
300

342
0
174
1
178
1
175
1
176
0
 93
0
 45
0.18
292
0
297
0
 46
0
343
0
 94
0
 47
1
 49
1
140
1
293
1
141
0
294
1
177
0
142
1
295
0
296
0
143
0.125
271
0
272
9
273
9
  0
MLINESTYLE
  5
18
102
{ACAD_REACTORS
330
17
102
}
330
17
100
AcDbMlineStyle
  2
STANDARD
 70
0
  3

 51
90
 52
90
 71
2
 49
0.5
 62
0
  6
ByLayer
 49
-0.5
 62
0
  6
ByLayer
  0
TABLESTYLE
  5
272
102
{ACAD_XDICTIONARY
360
273
102
}
102
{ACAD_REACTORS
330
271
102
}
330
271
100
AcDbTableStyle
  3

 70
0
 71
0
 40
0.06
 41
0.06
280
0
281
0
  7
Standard
140
0.18
170
1
 62
0
283
0
 90
512
 91
0
274
-2
284
1
 64
0
275
-2
285
1
 65
0
276
-2
286
1
 66
0
277
-2
287
1
 67
0
278
-2
288
1
 68
0
279
-2
289
1
 69
0
  7
Standard
140
0.18
170
1
 62
0
283
0
 90
512
 91
0
274
-2
284
1
 64
0
275
-2
285
1
 65
0
276
-2
286
1
 66
0
277
-2
287
1
 67
0
278
-2
288
1
 68
0
279
-2
289
1
 69
0
  7
Standard
140
0.18
170
1
 62
0
283
0
 90
512
 91
0
274
-2
284
1
 64
0
275
-2
285
1
 65
0
276
-2
286
1
 66
0
277
-2
287
1
 67
0
278
-2
288
1
 68
0
279
-2
289
1
 69
0
  0
DICTIONARYVAR
  5
277
102
{ACAD_REACTORS
330
276
102
}
330
276
100
DictionaryVariables
280
0
  1
1
  0
DICTIONARYVAR
  5
278
102
{ACAD_REACTORS
330
276
102
}
330
276
100
DictionaryVariables
280
0
  1
2
  0
ENDSEC
999
Created By CadLib version 4.0.38.30
999
CadLib website: www.woutware.com
  0
EOF
